{
	"asset":{
		"generator":"Khronos glTF Blender I/O v4.0.44",
		"version":"2.0"
	},
	"extensionsUsed":[
		"KHR_materials_specular"
	],
	"scene":0,
	"scenes":[
		{
			"name":"Scene",
			"nodes":[
				0
			]
		}
	],
	"nodes":[
		{
			"mesh":0,
			"name":"Object_2"
		}
	],
	"materials":[
		{
			"doubleSided":true,
			"extensions":{
				"KHR_materials_specular":{
					"specularFactor":0.08471846580505371
				}
			},
			"name":"Material.001",
			"normalTexture":{
				"index":0
			},
			"pbrMetallicRoughness":{
				"baseColorTexture":{
					"index":1
				},
				"metallicFactor":0,
				"metallicRoughnessTexture":{
					"index":2
				}
			}
		}
	],
	"meshes":[
		{
			"name":"Object_0",
			"primitives":[
				{
					"attributes":{
						"POSITION":0,
						"NORMAL":1,
						"TEXCOORD_0":2
					},
					"indices":3,
					"material":0
				}
			]
		}
	],
	"textures":[
		{
			"sampler":0,
			"source":0
		},
		{
			"sampler":0,
			"source":1
		},
		{
			"sampler":0,
			"source":2
		}
	],
	"images":[
		{
			"mimeType":"image/png",
			"name":"Material_normal",
			"uri":"Material_normal.png"
		},
		{
			"mimeType":"image/png",
			"name":"Material_baseColor",
			"uri":"Material_baseColor.png"
		},
		{
			"mimeType":"image/png",
			"name":"Material_metallicRoughness",
			"uri":"Material_metallicRoughness.png"
		}
	],
	"accessors":[
		{
			"bufferView":0,
			"componentType":5126,
			"count":1300,
			"max":[
				1.0724879503250122,
				0.7417060136795044,
				0.6372810006141663
			],
			"min":[
				-1.0724879503250122,
				0.001789978239685297,
				-0.637281060218811
			],
			"type":"VEC3"
		},
		{
			"bufferView":1,
			"componentType":5126,
			"count":1300,
			"type":"VEC3"
		},
		{
			"bufferView":2,
			"componentType":5126,
			"count":1300,
			"type":"VEC2"
		},
		{
			"bufferView":3,
			"componentType":5123,
			"count":3732,
			"type":"SCALAR"
		}
	],
	"bufferViews":[
		{
			"buffer":0,
			"byteLength":15600,
			"byteOffset":0,
			"target":34962
		},
		{
			"buffer":0,
			"byteLength":15600,
			"byteOffset":15600,
			"target":34962
		},
		{
			"buffer":0,
			"byteLength":10400,
			"byteOffset":31200,
			"target":34962
		},
		{
			"buffer":0,
			"byteLength":7464,
			"byteOffset":41600,
			"target":34963
		}
	],
	"samplers":[
		{
			"magFilter":9729,
			"minFilter":9987
		}
	],
	"buffers":[
		{
			"byteLength":49064,
			"uri":"table.bin"
		}
	]
}
