{
	"asset":{
		"generator":"Khronos glTF Blender I/O v4.2.57",
		"version":"2.0"
	},
	"scene":0,
	"scenes":[
		{
			"name":"Scene",
			"nodes":[
				0
			]
		}
	],
	"nodes":[
		{
			"mesh":0,
			"name":"Object_61"
		}
	],
	"materials":[
		{
			"doubleSided":true,
			"name":"normal",
			"pbrMetallicRoughness":{
				"baseColorTexture":{
					"index":0
				},
				"metallicFactor":0,
				"roughnessFactor":0.5
			}
		}
	],
	"meshes":[
		{
			"name":"Object_35.001",
			"primitives":[
				{
					"attributes":{
						"POSITION":0,
						"NORMAL":1,
						"TEXCOORD_0":2
					},
					"indices":3,
					"material":0
				}
			]
		}
	],
	"textures":[
		{
			"sampler":0,
			"source":0
		}
	],
	"images":[
		{
			"mimeType":"image/jpeg",
			"name":"normal_baseColor",
			"uri":"normal_baseColor.jpg"
		}
	],
	"accessors":[
		{
			"bufferView":0,
			"componentType":5126,
			"count":6894,
			"max":[
				0.3673769235610962,
				1.6401853561401367,
				0.5805150866508484
			],
			"min":[
				-0.6248853206634521,
				-4.76837158203125e-07,
				-0.3367295265197754
			],
			"type":"VEC3"
		},
		{
			"bufferView":1,
			"componentType":5126,
			"count":6894,
			"type":"VEC3"
		},
		{
			"bufferView":2,
			"componentType":5126,
			"count":6894,
			"type":"VEC2"
		},
		{
			"bufferView":3,
			"componentType":5123,
			"count":26400,
			"type":"SCALAR"
		}
	],
	"bufferViews":[
		{
			"buffer":0,
			"byteLength":82728,
			"byteOffset":0,
			"target":34962
		},
		{
			"buffer":0,
			"byteLength":82728,
			"byteOffset":82728,
			"target":34962
		},
		{
			"buffer":0,
			"byteLength":55152,
			"byteOffset":165456,
			"target":34962
		},
		{
			"buffer":0,
			"byteLength":52800,
			"byteOffset":220608,
			"target":34963
		}
	],
	"samplers":[
		{
			"magFilter":9729,
			"minFilter":9987
		}
	],
	"buffers":[
		{
			"byteLength":273408,
			"uri":"stolica.bin"
		}
	]
}
