{
	"asset":{
		"generator":"Khronos glTF Blender I/O v4.2.57",
		"version":"2.0"
	},
	"extensionsUsed":[
		"KHR_materials_specular"
	],
	"scene":0,
	"scenes":[
		{
			"name":"Scene",
			"nodes":[
				0
			]
		}
	],
	"nodes":[
		{
			"mesh":0,
			"name":"Object_4.002"
		}
	],
	"materials":[
		{
			"doubleSided":true,
			"extensions":{
				"KHR_materials_specular":{
					"specularTexture":{
						"index":0
					}
				}
			},
			"name":"accent_cabinet_Mat",
			"normalTexture":{
				"index":1
			},
			"occlusionTexture":{
				"index":2,
				"strength":0.5520483255386353
			},
			"pbrMetallicRoughness":{
				"baseColorTexture":{
					"index":3
				},
				"metallicRoughnessTexture":{
					"index":2
				}
			}
		}
	],
	"meshes":[
		{
			"name":"Object_0.002",
			"primitives":[
				{
					"attributes":{
						"POSITION":0,
						"NORMAL":1,
						"TEXCOORD_0":2,
						"TEXCOORD_1":3,
						"TEXCOORD_2":4,
						"TEXCOORD_3":5
					},
					"indices":6,
					"material":0
				}
			]
		}
	],
	"textures":[
		{
			"sampler":0,
			"source":0
		},
		{
			"sampler":0,
			"source":1
		},
		{
			"sampler":0,
			"source":2
		},
		{
			"sampler":0,
			"source":3
		}
	],
	"images":[
		{
			"mimeType":"image/jpeg",
			"name":"accent_cabinet_Mat_specularf0",
			"uri":"accent_cabinet_Mat_specularf0.jpg"
		},
		{
			"mimeType":"image/jpeg",
			"name":"accent_cabinet_Mat_normal",
			"uri":"accent_cabinet_Mat_normal.jpg"
		},
		{
			"mimeType":"image/jpeg",
			"name":"accent_cabinet_Mat_metallicRoughness",
			"uri":"accent_cabinet_Mat_metallicRoughness.jpg"
		},
		{
			"mimeType":"image/jpeg",
			"name":"accent_cabinet_Mat_baseColor",
			"uri":"accent_cabinet_Mat_baseColor.jpg"
		}
	],
	"accessors":[
		{
			"bufferView":0,
			"componentType":5126,
			"count":3058,
			"max":[
				1.1378295421600342,
				1.3227689266204834,
				0.28343427181243896
			],
			"min":[
				-1.1182985305786133,
				-2.1605890651699156e-05,
				-0.2987457513809204
			],
			"type":"VEC3"
		},
		{
			"bufferView":1,
			"componentType":5126,
			"count":3058,
			"type":"VEC3"
		},
		{
			"bufferView":2,
			"componentType":5126,
			"count":3058,
			"type":"VEC2"
		},
		{
			"bufferView":3,
			"componentType":5126,
			"count":3058,
			"type":"VEC2"
		},
		{
			"bufferView":4,
			"componentType":5126,
			"count":3058,
			"type":"VEC2"
		},
		{
			"bufferView":5,
			"componentType":5126,
			"count":3058,
			"type":"VEC2"
		},
		{
			"bufferView":6,
			"componentType":5123,
			"count":10194,
			"type":"SCALAR"
		}
	],
	"bufferViews":[
		{
			"buffer":0,
			"byteLength":36696,
			"byteOffset":0,
			"target":34962
		},
		{
			"buffer":0,
			"byteLength":36696,
			"byteOffset":36696,
			"target":34962
		},
		{
			"buffer":0,
			"byteLength":24464,
			"byteOffset":73392,
			"target":34962
		},
		{
			"buffer":0,
			"byteLength":24464,
			"byteOffset":97856,
			"target":34962
		},
		{
			"buffer":0,
			"byteLength":24464,
			"byteOffset":122320,
			"target":34962
		},
		{
			"buffer":0,
			"byteLength":24464,
			"byteOffset":146784,
			"target":34962
		},
		{
			"buffer":0,
			"byteLength":20388,
			"byteOffset":171248,
			"target":34963
		}
	],
	"samplers":[
		{
			"magFilter":9729,
			"minFilter":9987
		}
	],
	"buffers":[
		{
			"byteLength":191636,
			"uri":"scene.bin"
		}
	]
}
