{
	"asset":{
		"generator":"Khronos glTF Blender I/O v4.2.57",
		"version":"2.0"
	},
	"scene":0,
	"scenes":[
		{
			"name":"Scene",
			"nodes":[
				0
			]
		}
	],
	"nodes":[
		{
			"mesh":0,
			"name":"Object_87"
		}
	],
	"materials":[
		{
			"doubleSided":true,
			"name":"normal",
			"pbrMetallicRoughness":{
				"baseColorTexture":{
					"index":0
				},
				"metallicFactor":0,
				"roughnessFactor":0.5
			}
		}
	],
	"meshes":[
		{
			"name":"Object_51",
			"primitives":[
				{
					"attributes":{
						"POSITION":0,
						"NORMAL":1,
						"TEXCOORD_0":2
					},
					"indices":3,
					"material":0
				}
			]
		}
	],
	"textures":[
		{
			"sampler":0,
			"source":0
		}
	],
	"images":[
		{
			"mimeType":"image/jpeg",
			"name":"normal_baseColor",
			"uri":"normal_baseColor.jpg"
		}
	],
	"accessors":[
		{
			"bufferView":0,
			"componentType":5126,
			"count":1206,
			"max":[
				1.4716174602508545,
				1.245551347732544,
				0.596444845199585
			],
			"min":[
				-1.47934889793396,
				-0.005528811365365982,
				-0.6668241024017334
			],
			"type":"VEC3"
		},
		{
			"bufferView":1,
			"componentType":5126,
			"count":1206,
			"type":"VEC3"
		},
		{
			"bufferView":2,
			"componentType":5126,
			"count":1206,
			"type":"VEC2"
		},
		{
			"bufferView":3,
			"componentType":5123,
			"count":2184,
			"type":"SCALAR"
		}
	],
	"bufferViews":[
		{
			"buffer":0,
			"byteLength":14472,
			"byteOffset":0,
			"target":34962
		},
		{
			"buffer":0,
			"byteLength":14472,
			"byteOffset":14472,
			"target":34962
		},
		{
			"buffer":0,
			"byteLength":9648,
			"byteOffset":28944,
			"target":34962
		},
		{
			"buffer":0,
			"byteLength":4368,
			"byteOffset":38592,
			"target":34963
		}
	],
	"samplers":[
		{
			"magFilter":9729,
			"minFilter":9987
		}
	],
	"buffers":[
		{
			"byteLength":42960,
			"uri":"scene.bin"
		}
	]
}
