{
	"asset":{
		"generator":"Khronos glTF Blender I/O v4.2.57",
		"version":"2.0"
	},
	"scene":0,
	"scenes":[
		{
			"name":"Scene",
			"nodes":[
				0
			]
		}
	],
	"nodes":[
		{
			"mesh":0,
			"name":"Base_Material.001_0"
		}
	],
	"materials":[
		{
			"doubleSided":true,
			"name":"Material.001",
			"normalTexture":{
				"index":0
			},
			"pbrMetallicRoughness":{
				"baseColorTexture":{
					"index":1
				},
				"metallicRoughnessTexture":{
					"index":2
				}
			}
		}
	],
	"meshes":[
		{
			"name":"Base_Material.001_0",
			"primitives":[
				{
					"attributes":{
						"POSITION":0,
						"NORMAL":1,
						"TEXCOORD_0":2,
						"TEXCOORD_1":3,
						"TEXCOORD_2":4
					},
					"indices":5,
					"material":0
				}
			]
		}
	],
	"textures":[
		{
			"sampler":0,
			"source":0
		},
		{
			"sampler":0,
			"source":1
		},
		{
			"sampler":0,
			"source":2
		}
	],
	"images":[
		{
			"mimeType":"image/jpeg",
			"name":"Material.001_normal",
			"uri":"Material_001_normal.jpg"
		},
		{
			"mimeType":"image/jpeg",
			"name":"Material.001_baseColor",
			"uri":"Material_001_baseColor.jpg"
		},
		{
			"mimeType":"image/jpeg",
			"name":"Material.001_metallicRoughness",
			"uri":"Material_001_metallicRoughness.jpg"
		}
	],
	"accessors":[
		{
			"bufferView":0,
			"componentType":5126,
			"count":6242,
			"max":[
				0.07203090935945511,
				0.3780301511287689,
				0.07203060388565063
			],
			"min":[
				-0.07203084975481033,
				-2.064808413138053e-08,
				-0.07203114032745361
			],
			"type":"VEC3"
		},
		{
			"bufferView":1,
			"componentType":5126,
			"count":6242,
			"type":"VEC3"
		},
		{
			"bufferView":2,
			"componentType":5126,
			"count":6242,
			"type":"VEC2"
		},
		{
			"bufferView":3,
			"componentType":5126,
			"count":6242,
			"type":"VEC2"
		},
		{
			"bufferView":4,
			"componentType":5126,
			"count":6242,
			"type":"VEC2"
		},
		{
			"bufferView":5,
			"componentType":5123,
			"count":21345,
			"type":"SCALAR"
		}
	],
	"bufferViews":[
		{
			"buffer":0,
			"byteLength":74904,
			"byteOffset":0,
			"target":34962
		},
		{
			"buffer":0,
			"byteLength":74904,
			"byteOffset":74904,
			"target":34962
		},
		{
			"buffer":0,
			"byteLength":49936,
			"byteOffset":149808,
			"target":34962
		},
		{
			"buffer":0,
			"byteLength":49936,
			"byteOffset":199744,
			"target":34962
		},
		{
			"buffer":0,
			"byteLength":49936,
			"byteOffset":249680,
			"target":34962
		},
		{
			"buffer":0,
			"byteLength":42690,
			"byteOffset":299616,
			"target":34963
		}
	],
	"samplers":[
		{
			"magFilter":9729,
			"minFilter":9987
		}
	],
	"buffers":[
		{
			"byteLength":342308,
			"uri":"untitled.bin"
		}
	]
}
