{
	"asset":{
		"generator":"Khronos glTF Blender I/O v4.2.57",
		"version":"2.0"
	},
	"scene":0,
	"scenes":[
		{
			"name":"Scene",
			"nodes":[
				0,
				1,
				2,
				3
			]
		}
	],
	"nodes":[
		{
			"mesh":0,
			"name":"plant asset_Material.004_0"
		},
		{
			"mesh":1,
			"name":"plant asset_Material.003_0"
		},
		{
			"mesh":2,
			"name":"plant asset_Material.001_0"
		},
		{
			"mesh":3,
			"name":"Cylinder_Material.002_0.001"
		}
	],
	"materials":[
		{
			"doubleSided":true,
			"name":"Material.022",
			"pbrMetallicRoughness":{
				"metallicFactor":0,
				"roughnessFactor":0.7200955748558044
			}
		},
		{
			"doubleSided":true,
			"name":"Material.023",
			"pbrMetallicRoughness":{
				"baseColorFactor":[
					0.5176470279693604,
					0.5176470279693604,
					0.5176470279693604,
					1
				],
				"metallicFactor":0
			}
		},
		{
			"doubleSided":true,
			"name":"Material.024",
			"pbrMetallicRoughness":{
				"baseColorFactor":[
					0.2695179879665375,
					0.5589020252227783,
					0.10404700040817261,
					1
				],
				"metallicFactor":0,
				"roughnessFactor":0.8780663013458252
			}
		},
		{
			"doubleSided":true,
			"name":"Material.025",
			"pbrMetallicRoughness":{
				"baseColorTexture":{
					"index":0
				},
				"metallicFactor":0
			}
		}
	],
	"meshes":[
		{
			"name":"plant asset_Material.004_0",
			"primitives":[
				{
					"attributes":{
						"POSITION":0,
						"NORMAL":1,
						"TEXCOORD_0":2
					},
					"indices":3,
					"material":0
				}
			]
		},
		{
			"name":"plant asset_Material.003_0",
			"primitives":[
				{
					"attributes":{
						"POSITION":4,
						"NORMAL":5,
						"TEXCOORD_0":6
					},
					"indices":7,
					"material":1
				}
			]
		},
		{
			"name":"plant asset_Material.001_0",
			"primitives":[
				{
					"attributes":{
						"POSITION":8,
						"NORMAL":9,
						"TEXCOORD_0":10
					},
					"indices":11,
					"material":2
				}
			]
		},
		{
			"name":"Cylinder_Material.002_0.001",
			"primitives":[
				{
					"attributes":{
						"POSITION":12,
						"NORMAL":13,
						"TEXCOORD_0":14
					},
					"indices":15,
					"material":3
				}
			]
		}
	],
	"textures":[
		{
			"sampler":0,
			"source":0
		}
	],
	"images":[
		{
			"mimeType":"image/jpeg",
			"name":"Material.002_baseColor",
			"uri":"Material_002_baseColor.jpg"
		}
	],
	"accessors":[
		{
			"bufferView":0,
			"componentType":5126,
			"count":2133,
			"max":[
				0.18915905058383942,
				0.35003602504730225,
				0.24155037105083466
			],
			"min":[
				-0.27601373195648193,
				0.0015364587306976318,
				-0.22362245619297028
			],
			"type":"VEC3"
		},
		{
			"bufferView":1,
			"componentType":5126,
			"count":2133,
			"type":"VEC3"
		},
		{
			"bufferView":2,
			"componentType":5126,
			"count":2133,
			"type":"VEC2"
		},
		{
			"bufferView":3,
			"componentType":5123,
			"count":10368,
			"type":"SCALAR"
		},
		{
			"bufferView":4,
			"componentType":5126,
			"count":3750,
			"max":[
				0.11835046112537384,
				0.32185429334640503,
				0.21030886471271515
			],
			"min":[
				-0.26534503698349,
				0.30586886405944824,
				-0.20512957870960236
			],
			"type":"VEC3"
		},
		{
			"bufferView":5,
			"componentType":5126,
			"count":3750,
			"type":"VEC3"
		},
		{
			"bufferView":6,
			"componentType":5126,
			"count":3750,
			"type":"VEC2"
		},
		{
			"bufferView":7,
			"componentType":5123,
			"count":19026,
			"type":"SCALAR"
		},
		{
			"bufferView":8,
			"componentType":5126,
			"count":16250,
			"max":[
				0.30913493037223816,
				0.4481046199798584,
				0.39218997955322266
			],
			"min":[
				-0.47553110122680664,
				0.2929237484931946,
				-0.30109384655952454
			],
			"type":"VEC3"
		},
		{
			"bufferView":9,
			"componentType":5126,
			"count":16250,
			"type":"VEC3"
		},
		{
			"bufferView":10,
			"componentType":5126,
			"count":16250,
			"type":"VEC2"
		},
		{
			"bufferView":11,
			"componentType":5123,
			"count":97344,
			"type":"SCALAR"
		},
		{
			"bufferView":12,
			"componentType":5126,
			"count":192,
			"max":[
				0.17183086276054382,
				0.31392866373062134,
				0.22576726973056793
			],
			"min":[
				-0.25868555903434753,
				0.29878127574920654,
				-0.2078392654657364
			],
			"type":"VEC3"
		},
		{
			"bufferView":13,
			"componentType":5126,
			"count":192,
			"type":"VEC3"
		},
		{
			"bufferView":14,
			"componentType":5126,
			"count":192,
			"type":"VEC2"
		},
		{
			"bufferView":15,
			"componentType":5123,
			"count":372,
			"type":"SCALAR"
		}
	],
	"bufferViews":[
		{
			"buffer":0,
			"byteLength":25596,
			"byteOffset":0,
			"target":34962
		},
		{
			"buffer":0,
			"byteLength":25596,
			"byteOffset":25596,
			"target":34962
		},
		{
			"buffer":0,
			"byteLength":17064,
			"byteOffset":51192,
			"target":34962
		},
		{
			"buffer":0,
			"byteLength":20736,
			"byteOffset":68256,
			"target":34963
		},
		{
			"buffer":0,
			"byteLength":45000,
			"byteOffset":88992,
			"target":34962
		},
		{
			"buffer":0,
			"byteLength":45000,
			"byteOffset":133992,
			"target":34962
		},
		{
			"buffer":0,
			"byteLength":30000,
			"byteOffset":178992,
			"target":34962
		},
		{
			"buffer":0,
			"byteLength":38052,
			"byteOffset":208992,
			"target":34963
		},
		{
			"buffer":0,
			"byteLength":195000,
			"byteOffset":247044,
			"target":34962
		},
		{
			"buffer":0,
			"byteLength":195000,
			"byteOffset":442044,
			"target":34962
		},
		{
			"buffer":0,
			"byteLength":130000,
			"byteOffset":637044,
			"target":34962
		},
		{
			"buffer":0,
			"byteLength":194688,
			"byteOffset":767044,
			"target":34963
		},
		{
			"buffer":0,
			"byteLength":2304,
			"byteOffset":961732,
			"target":34962
		},
		{
			"buffer":0,
			"byteLength":2304,
			"byteOffset":964036,
			"target":34962
		},
		{
			"buffer":0,
			"byteLength":1536,
			"byteOffset":966340,
			"target":34962
		},
		{
			"buffer":0,
			"byteLength":744,
			"byteOffset":967876,
			"target":34963
		}
	],
	"samplers":[
		{
			"magFilter":9729,
			"minFilter":9987
		}
	],
	"buffers":[
		{
			"byteLength":968620,
			"uri":"scene.bin"
		}
	]
}
