{
	"asset":{
		"generator":"Khronos glTF Blender I/O v4.2.57",
		"version":"2.0"
	},
	"scene":0,
	"scenes":[
		{
			"name":"Scene",
			"nodes":[
				0,
				1,
				2,
				3,
				4,
				5
			]
		}
	],
	"nodes":[
		{
			"mesh":0,
			"name":"Object_2.001"
		},
		{
			"mesh":1,
			"name":"Object_3"
		},
		{
			"mesh":2,
			"name":"Object_4.003"
		},
		{
			"mesh":3,
			"name":"Object_2.003"
		},
		{
			"mesh":4,
			"name":"Object_3.001"
		},
		{
			"mesh":5,
			"name":"Object_4.005"
		}
	],
	"materials":[
		{
			"doubleSided":true,
			"name":"material_frame",
			"pbrMetallicRoughness":{
				"baseColorFactor":[
					0.6444796919822693,
					0.4969329833984375,
					0.07618538290262222,
					1
				],
				"metallicFactor":0.9224466681480408,
				"roughnessFactor":0.053163111209869385
			}
		},
		{
			"doubleSided":true,
			"name":"material_poster",
			"pbrMetallicRoughness":{
				"baseColorTexture":{
					"index":0
				},
				"metallicFactor":0,
				"roughnessFactor":0.8434915542602539
			}
		},
		{
			"doubleSided":true,
			"name":"material_matting",
			"pbrMetallicRoughness":{
				"baseColorFactor":[
					0.513725996017456,
					0.4745100140571594,
					0.36470600962638855,
					1
				],
				"metallicFactor":0,
				"roughnessFactor":0.8434915542602539
			}
		},
		{
			"doubleSided":true,
			"name":"material_frame.001",
			"pbrMetallicRoughness":{
				"baseColorFactor":[
					0.6444796919822693,
					0.4969329833984375,
					0.07618538290262222,
					1
				],
				"metallicFactor":0.9163491129875183,
				"roughnessFactor":0.059260670095682144
			}
		},
		{
			"doubleSided":true,
			"name":"material_poster.001",
			"pbrMetallicRoughness":{
				"baseColorTexture":{
					"index":1
				},
				"metallicFactor":0,
				"roughnessFactor":0.8434915542602539
			}
		},
		{
			"doubleSided":true,
			"name":"material_matting.001",
			"pbrMetallicRoughness":{
				"baseColorFactor":[
					0.513725996017456,
					0.4745100140571594,
					0.36470600962638855,
					1
				],
				"metallicFactor":0,
				"roughnessFactor":0.8434915542602539
			}
		}
	],
	"meshes":[
		{
			"name":"Object_0.003",
			"primitives":[
				{
					"attributes":{
						"POSITION":0,
						"NORMAL":1
					},
					"indices":2,
					"material":0
				}
			]
		},
		{
			"name":"Object_1.002",
			"primitives":[
				{
					"attributes":{
						"POSITION":3,
						"NORMAL":4,
						"TEXCOORD_0":5
					},
					"indices":6,
					"material":1
				}
			]
		},
		{
			"name":"Object_2.002",
			"primitives":[
				{
					"attributes":{
						"POSITION":7,
						"NORMAL":8
					},
					"indices":9,
					"material":2
				}
			]
		},
		{
			"name":"Object_0.004",
			"primitives":[
				{
					"attributes":{
						"POSITION":10,
						"NORMAL":11
					},
					"indices":2,
					"material":3
				}
			]
		},
		{
			"name":"Object_1.003",
			"primitives":[
				{
					"attributes":{
						"POSITION":12,
						"NORMAL":13,
						"TEXCOORD_0":14
					},
					"indices":6,
					"material":4
				}
			]
		},
		{
			"name":"Object_2.003",
			"primitives":[
				{
					"attributes":{
						"POSITION":15,
						"NORMAL":16
					},
					"indices":9,
					"material":5
				}
			]
		}
	],
	"textures":[
		{
			"sampler":0,
			"source":0
		},
		{
			"sampler":0,
			"source":1
		}
	],
	"images":[
		{
			"mimeType":"image/jpeg",
			"name":"material_poster_baseColor",
			"uri":"material_poster_baseColor.jpg"
		},
		{
			"mimeType":"image/jpeg",
			"name":"material_poster_baseColor",
			"uri":"material_poster_baseColor-1.jpg"
		}
	],
	"accessors":[
		{
			"bufferView":0,
			"componentType":5126,
			"count":32,
			"max":[
				0.04451397433876991,
				1.312368631362915,
				-0.276200532913208
			],
			"min":[
				-0.007673628628253937,
				-0.0027523934841156006,
				-1.2468852996826172
			],
			"type":"VEC3"
		},
		{
			"bufferView":1,
			"componentType":5126,
			"count":32,
			"type":"VEC3"
		},
		{
			"bufferView":2,
			"componentType":5123,
			"count":174,
			"type":"SCALAR"
		},
		{
			"bufferView":3,
			"componentType":5126,
			"count":4,
			"max":[
				0.027152355760335922,
				1.176681637763977,
				-0.3885883390903473
			],
			"min":[
				0.02715214714407921,
				0.13293468952178955,
				-1.0878989696502686
			],
			"type":"VEC3"
		},
		{
			"bufferView":4,
			"componentType":5126,
			"count":4,
			"type":"VEC3"
		},
		{
			"bufferView":5,
			"componentType":5126,
			"count":4,
			"type":"VEC2"
		},
		{
			"bufferView":6,
			"componentType":5123,
			"count":6,
			"type":"SCALAR"
		},
		{
			"bufferView":7,
			"componentType":5126,
			"count":24,
			"max":[
				0.018420275300741196,
				1.2810559272766113,
				-0.3075130879878998
			],
			"min":[
				0.013201318681240082,
				0.028560005128383636,
				-1.215572714805603
			],
			"type":"VEC3"
		},
		{
			"bufferView":8,
			"componentType":5126,
			"count":24,
			"type":"VEC3"
		},
		{
			"bufferView":9,
			"componentType":5123,
			"count":48,
			"type":"SCALAR"
		},
		{
			"bufferView":10,
			"componentType":5126,
			"count":32,
			"max":[
				0.04035520181059837,
				1.327742338180542,
				1.2628716230392456
			],
			"min":[
				-0.033078327775001526,
				-0.006125062704086304,
				0.23086321353912354
			],
			"type":"VEC3"
		},
		{
			"bufferView":11,
			"componentType":5126,
			"count":32,
			"type":"VEC3"
		},
		{
			"bufferView":12,
			"componentType":5126,
			"count":4,
			"max":[
				0.02090531215071678,
				1.1806870698928833,
				1.0860331058502197
			],
			"min":[
				-0.002487093210220337,
				0.14984266459941864,
				0.4075239896774292
			],
			"type":"VEC3"
		},
		{
			"bufferView":13,
			"componentType":5126,
			"count":4,
			"type":"VEC3"
		},
		{
			"bufferView":14,
			"componentType":5126,
			"count":4,
			"type":"VEC2"
		},
		{
			"bufferView":15,
			"componentType":5126,
			"count":24,
			"max":[
				0.02090531215071678,
				1.2841169834136963,
				1.1868171691894531
			],
			"min":[
				-0.010443858802318573,
				0.046323440968990326,
				0.3069467544555664
			],
			"type":"VEC3"
		},
		{
			"bufferView":16,
			"componentType":5126,
			"count":24,
			"type":"VEC3"
		}
	],
	"bufferViews":[
		{
			"buffer":0,
			"byteLength":384,
			"byteOffset":0,
			"target":34962
		},
		{
			"buffer":0,
			"byteLength":384,
			"byteOffset":384,
			"target":34962
		},
		{
			"buffer":0,
			"byteLength":348,
			"byteOffset":768,
			"target":34963
		},
		{
			"buffer":0,
			"byteLength":48,
			"byteOffset":1116,
			"target":34962
		},
		{
			"buffer":0,
			"byteLength":48,
			"byteOffset":1164,
			"target":34962
		},
		{
			"buffer":0,
			"byteLength":32,
			"byteOffset":1212,
			"target":34962
		},
		{
			"buffer":0,
			"byteLength":12,
			"byteOffset":1244,
			"target":34963
		},
		{
			"buffer":0,
			"byteLength":288,
			"byteOffset":1256,
			"target":34962
		},
		{
			"buffer":0,
			"byteLength":288,
			"byteOffset":1544,
			"target":34962
		},
		{
			"buffer":0,
			"byteLength":96,
			"byteOffset":1832,
			"target":34963
		},
		{
			"buffer":0,
			"byteLength":384,
			"byteOffset":1928,
			"target":34962
		},
		{
			"buffer":0,
			"byteLength":384,
			"byteOffset":2312,
			"target":34962
		},
		{
			"buffer":0,
			"byteLength":48,
			"byteOffset":2696,
			"target":34962
		},
		{
			"buffer":0,
			"byteLength":48,
			"byteOffset":2744,
			"target":34962
		},
		{
			"buffer":0,
			"byteLength":32,
			"byteOffset":2792,
			"target":34962
		},
		{
			"buffer":0,
			"byteLength":288,
			"byteOffset":2824,
			"target":34962
		},
		{
			"buffer":0,
			"byteLength":288,
			"byteOffset":3112,
			"target":34962
		}
	],
	"samplers":[
		{
			"magFilter":9729,
			"minFilter":9987
		}
	],
	"buffers":[
		{
			"byteLength":3400,
			"uri":"scene.bin"
		}
	]
}
