{
	"asset":{
		"generator":"Khronos glTF Blender I/O v4.2.57",
		"version":"2.0"
	},
	"extensionsUsed":[
		"KHR_materials_emissive_strength"
	],
	"scene":0,
	"scenes":[
		{
			"name":"Scene",
			"nodes":[
				0,
				1
			]
		}
	],
	"nodes":[
		{
			"mesh":0,
			"name":"Object_4.004",
			"translation":[
				0.0040509700775146484,
				0.022487163543701172,
				-0.004458189010620117
			]
		},
		{
			"mesh":1,
			"name":"Cube.014",
			"translation":[
				0.0040509700775146484,
				0.022487163543701172,
				-0.004458189010620117
			]
		}
	],
	"materials":[
		{
			"doubleSided":true,
			"emissiveFactor":[
				1,
				1,
				1
			],
			"emissiveTexture":{
				"index":0
			},
			"name":"CurlyColorfulMat",
			"normalTexture":{
				"index":1
			},
			"pbrMetallicRoughness":{
				"baseColorTexture":{
					"index":2
				},
				"roughnessFactor":0.5527859926223755
			}
		},
		{
			"doubleSided":true,
			"name":"Material.002",
			"pbrMetallicRoughness":{
				"baseColorTexture":{
					"index":3
				},
				"metallicFactor":0,
				"roughnessFactor":0.5
			}
		},
		{
			"doubleSided":true,
			"emissiveFactor":[
				0.05003202334046364,
				0.00900487694889307,
				1
			],
			"extensions":{
				"KHR_materials_emissive_strength":{
					"emissiveStrength":100
				}
			},
			"name":"Material.014",
			"pbrMetallicRoughness":{
				"baseColorFactor":[
					0,
					0,
					0,
					1
				]
			}
		}
	],
	"meshes":[
		{
			"name":"Object_0.001",
			"primitives":[
				{
					"attributes":{
						"POSITION":0,
						"NORMAL":1,
						"TEXCOORD_0":2,
						"TEXCOORD_1":3,
						"TEXCOORD_2":4,
						"TEXCOORD_3":5
					},
					"indices":6,
					"material":0
				}
			]
		},
		{
			"name":"Cube.025",
			"primitives":[
				{
					"attributes":{
						"POSITION":7,
						"NORMAL":8,
						"TEXCOORD_0":9
					},
					"indices":10,
					"material":1
				},
				{
					"attributes":{
						"POSITION":11,
						"NORMAL":12,
						"TEXCOORD_0":13
					},
					"indices":14,
					"material":2
				}
			]
		}
	],
	"textures":[
		{
			"sampler":0,
			"source":0
		},
		{
			"sampler":0,
			"source":1
		},
		{
			"sampler":0,
			"source":2
		},
		{
			"sampler":0,
			"source":3
		}
	],
	"images":[
		{
			"mimeType":"image/jpeg",
			"name":"CurlyColorfulMat_emissive",
			"uri":"CurlyColorfulMat_emissive.jpg"
		},
		{
			"mimeType":"image/jpeg",
			"name":"CurlyColorfulMat_normal",
			"uri":"CurlyColorfulMat_normal.jpg"
		},
		{
			"mimeType":"image/jpeg",
			"name":"CurlyColorfulMat_baseColor",
			"uri":"CurlyColorfulMat_baseColor.jpg"
		},
		{
			"mimeType":"image/jpeg",
			"name":"024cb4c9894df2b015e9d80131b4f1ec",
			"uri":"024cb4c9894df2b015e9d80131b4f1ec.jpg"
		}
	],
	"accessors":[
		{
			"bufferView":0,
			"componentType":5126,
			"count":7425,
			"max":[
				0.884172797203064,
				0.10262879729270935,
				-0.16365092992782593
			],
			"min":[
				-1.0490211248397827,
				-0.07900162786245346,
				-0.27973422408103943
			],
			"type":"VEC3"
		},
		{
			"bufferView":1,
			"componentType":5126,
			"count":7425,
			"type":"VEC3"
		},
		{
			"bufferView":2,
			"componentType":5126,
			"count":7425,
			"type":"VEC2"
		},
		{
			"bufferView":3,
			"componentType":5126,
			"count":7425,
			"type":"VEC2"
		},
		{
			"bufferView":4,
			"componentType":5126,
			"count":7425,
			"type":"VEC2"
		},
		{
			"bufferView":5,
			"componentType":5126,
			"count":7425,
			"type":"VEC2"
		},
		{
			"bufferView":6,
			"componentType":5123,
			"count":23106,
			"type":"SCALAR"
		},
		{
			"bufferView":7,
			"componentType":5126,
			"count":42,
			"max":[
				0.8982354402542114,
				0.12409443408250809,
				0.3320833742618561
			],
			"min":[
				-1.1057807207107544,
				0.026107609272003174,
				-0.33864572644233704
			],
			"type":"VEC3"
		},
		{
			"bufferView":8,
			"componentType":5126,
			"count":42,
			"type":"VEC3"
		},
		{
			"bufferView":9,
			"componentType":5126,
			"count":42,
			"type":"VEC2"
		},
		{
			"bufferView":10,
			"componentType":5123,
			"count":78,
			"type":"SCALAR"
		},
		{
			"bufferView":11,
			"componentType":5126,
			"count":4,
			"max":[
				0.8981785774230957,
				0.07424607872962952,
				-0.2635308504104614
			],
			"min":[
				-1.1021133661270142,
				0.026107609272003174,
				-0.32942119240760803
			],
			"type":"VEC3"
		},
		{
			"bufferView":12,
			"componentType":5126,
			"count":4,
			"type":"VEC3"
		},
		{
			"bufferView":13,
			"componentType":5126,
			"count":4,
			"type":"VEC2"
		},
		{
			"bufferView":14,
			"componentType":5123,
			"count":6,
			"type":"SCALAR"
		}
	],
	"bufferViews":[
		{
			"buffer":0,
			"byteLength":89100,
			"byteOffset":0,
			"target":34962
		},
		{
			"buffer":0,
			"byteLength":89100,
			"byteOffset":89100,
			"target":34962
		},
		{
			"buffer":0,
			"byteLength":59400,
			"byteOffset":178200,
			"target":34962
		},
		{
			"buffer":0,
			"byteLength":59400,
			"byteOffset":237600,
			"target":34962
		},
		{
			"buffer":0,
			"byteLength":59400,
			"byteOffset":297000,
			"target":34962
		},
		{
			"buffer":0,
			"byteLength":59400,
			"byteOffset":356400,
			"target":34962
		},
		{
			"buffer":0,
			"byteLength":46212,
			"byteOffset":415800,
			"target":34963
		},
		{
			"buffer":0,
			"byteLength":504,
			"byteOffset":462012,
			"target":34962
		},
		{
			"buffer":0,
			"byteLength":504,
			"byteOffset":462516,
			"target":34962
		},
		{
			"buffer":0,
			"byteLength":336,
			"byteOffset":463020,
			"target":34962
		},
		{
			"buffer":0,
			"byteLength":156,
			"byteOffset":463356,
			"target":34963
		},
		{
			"buffer":0,
			"byteLength":48,
			"byteOffset":463512,
			"target":34962
		},
		{
			"buffer":0,
			"byteLength":48,
			"byteOffset":463560,
			"target":34962
		},
		{
			"buffer":0,
			"byteLength":32,
			"byteOffset":463608,
			"target":34962
		},
		{
			"buffer":0,
			"byteLength":12,
			"byteOffset":463640,
			"target":34963
		}
	],
	"samplers":[
		{
			"magFilter":9729,
			"minFilter":9987
		}
	],
	"buffers":[
		{
			"byteLength":463652,
			"uri":"polica2.bin"
		}
	]
}
