{
	"asset":{
		"generator":"Khronos glTF Blender I/O v4.2.57",
		"version":"2.0"
	},
	"scene":0,
	"scenes":[
		{
			"name":"Scene",
			"nodes":[
				0
			]
		}
	],
	"nodes":[
		{
			"mesh":0,
			"name":"Object_16.002"
		}
	],
	"materials":[
		{
			"doubleSided":true,
			"name":"normal",
			"pbrMetallicRoughness":{
				"baseColorTexture":{
					"index":0
				},
				"metallicFactor":0,
				"roughnessFactor":0.5
			}
		}
	],
	"meshes":[
		{
			"name":"Object_8.001",
			"primitives":[
				{
					"attributes":{
						"POSITION":0,
						"NORMAL":1,
						"TEXCOORD_0":2
					},
					"indices":3,
					"material":0
				}
			]
		}
	],
	"textures":[
		{
			"sampler":0,
			"source":0
		}
	],
	"images":[
		{
			"mimeType":"image/jpeg",
			"name":"normal_baseColor",
			"uri":"normal_baseColor.jpg"
		}
	],
	"accessors":[
		{
			"bufferView":0,
			"componentType":5126,
			"count":218,
			"max":[
				3.023709774017334,
				3.843093156814575,
				3.761552333831787
			],
			"min":[
				-4.6081318855285645,
				-0.358856737613678,
				-3.6723530292510986
			],
			"type":"VEC3"
		},
		{
			"bufferView":1,
			"componentType":5126,
			"count":218,
			"type":"VEC3"
		},
		{
			"bufferView":2,
			"componentType":5126,
			"count":218,
			"type":"VEC2"
		},
		{
			"bufferView":3,
			"componentType":5123,
			"count":432,
			"type":"SCALAR"
		}
	],
	"bufferViews":[
		{
			"buffer":0,
			"byteLength":2616,
			"byteOffset":0,
			"target":34962
		},
		{
			"buffer":0,
			"byteLength":2616,
			"byteOffset":2616,
			"target":34962
		},
		{
			"buffer":0,
			"byteLength":1744,
			"byteOffset":5232,
			"target":34962
		},
		{
			"buffer":0,
			"byteLength":864,
			"byteOffset":6976,
			"target":34963
		}
	],
	"samplers":[
		{
			"magFilter":9729,
			"minFilter":9987
		}
	],
	"buffers":[
		{
			"byteLength":7840,
			"uri":"scene.bin"
		}
	]
}
