{
	"asset":{
		"generator":"Khronos glTF Blender I/O v4.2.57",
		"version":"2.0"
	},
	"scene":0,
	"scenes":[
		{
			"name":"Scene",
			"nodes":[
				0
			]
		}
	],
	"nodes":[
		{
			"mesh":0,
			"name":"Bunny_Bunny_0"
		}
	],
	"materials":[
		{
			"doubleSided":true,
			"name":"Bunny",
			"pbrMetallicRoughness":{
				"baseColorTexture":{
					"index":0
				},
				"metallicFactor":0,
				"metallicRoughnessTexture":{
					"index":1
				}
			}
		}
	],
	"meshes":[
		{
			"name":"Bunny_Bunny_0",
			"primitives":[
				{
					"attributes":{
						"POSITION":0,
						"NORMAL":1,
						"TEXCOORD_0":2
					},
					"indices":3,
					"material":0
				}
			]
		}
	],
	"textures":[
		{
			"sampler":0,
			"source":0
		},
		{
			"sampler":0,
			"source":1
		}
	],
	"images":[
		{
			"mimeType":"image/jpeg",
			"name":"Bunny_baseColor",
			"uri":"Bunny_baseColor.jpg"
		},
		{
			"mimeType":"image/jpeg",
			"name":"Bunny_metallicRoughness",
			"uri":"Bunny_metallicRoughness.jpg"
		}
	],
	"accessors":[
		{
			"bufferView":0,
			"componentType":5126,
			"count":13803,
			"max":[
				0.26562637090682983,
				0.9454323649406433,
				0.2163293957710266
			],
			"min":[
				-0.2375534474849701,
				0.006496835965663195,
				-0.210425466299057
			],
			"type":"VEC3"
		},
		{
			"bufferView":1,
			"componentType":5126,
			"count":13803,
			"type":"VEC3"
		},
		{
			"bufferView":2,
			"componentType":5126,
			"count":13803,
			"type":"VEC2"
		},
		{
			"bufferView":3,
			"componentType":5123,
			"count":74424,
			"type":"SCALAR"
		}
	],
	"bufferViews":[
		{
			"buffer":0,
			"byteLength":165636,
			"byteOffset":0,
			"target":34962
		},
		{
			"buffer":0,
			"byteLength":165636,
			"byteOffset":165636,
			"target":34962
		},
		{
			"buffer":0,
			"byteLength":110424,
			"byteOffset":331272,
			"target":34962
		},
		{
			"buffer":0,
			"byteLength":148848,
			"byteOffset":441696,
			"target":34963
		}
	],
	"samplers":[
		{
			"magFilter":9729,
			"minFilter":9987
		}
	],
	"buffers":[
		{
			"byteLength":590544,
			"uri":"scene.bin"
		}
	]
}
