{
	"asset":{
		"generator":"Khronos glTF Blender I/O v4.2.57",
		"version":"2.0"
	},
	"scene":0,
	"scenes":[
		{
			"name":"Scene",
			"nodes":[
				0,
				1,
				2,
				3,
				4,
				5,
				6,
				7,
				8,
				9,
				10,
				11
			]
		}
	],
	"nodes":[
		{
			"mesh":0,
			"name":"BlackBallPen_BlackBallpenShaft_0"
		},
		{
			"mesh":1,
			"name":"BlackBallPen_BlackCap_0"
		},
		{
			"mesh":2,
			"name":"BlackBallPen_BlackCover_0"
		},
		{
			"mesh":3,
			"name":"BlackBallPen_BlackInk_0"
		},
		{
			"mesh":4,
			"name":"BlackBallPen_BlackInkHolder_0"
		},
		{
			"mesh":5,
			"name":"BlackBallPen_BlackMetal_0"
		},
		{
			"mesh":6,
			"name":"Pencils_Eraser_0"
		},
		{
			"mesh":7,
			"name":"Pencils_Lead_0"
		},
		{
			"mesh":8,
			"name":"Pencils_Metal_0"
		},
		{
			"mesh":9,
			"name":"Pencils_Shaft_0"
		},
		{
			"mesh":10,
			"name":"Pencils_Wood_0"
		},
		{
			"mesh":11,
			"name":"PenHolder_PenHolder_0"
		}
	],
	"materials":[
		{
			"alphaMode":"BLEND",
			"doubleSided":true,
			"name":"BlackBallpenShaft.001",
			"normalTexture":{
				"index":0
			},
			"pbrMetallicRoughness":{
				"baseColorFactor":[
					1,
					1,
					1,
					0.2118101716041565
				],
				"baseColorTexture":{
					"index":1
				},
				"metallicRoughnessTexture":{
					"index":2
				}
			}
		},
		{
			"doubleSided":true,
			"name":"BlackCap.001",
			"normalTexture":{
				"index":3
			},
			"pbrMetallicRoughness":{
				"baseColorTexture":{
					"index":4
				},
				"metallicFactor":0,
				"metallicRoughnessTexture":{
					"index":5
				}
			}
		},
		{
			"doubleSided":true,
			"name":"BlackCover.001",
			"normalTexture":{
				"index":6
			},
			"pbrMetallicRoughness":{
				"baseColorTexture":{
					"index":7
				},
				"metallicFactor":0,
				"metallicRoughnessTexture":{
					"index":8
				}
			}
		},
		{
			"doubleSided":true,
			"name":"BlackInk.001",
			"normalTexture":{
				"index":9
			},
			"pbrMetallicRoughness":{
				"baseColorTexture":{
					"index":10
				},
				"metallicRoughnessTexture":{
					"index":11
				}
			}
		},
		{
			"doubleSided":true,
			"name":"BlackInkHolder.001",
			"normalTexture":{
				"index":12
			},
			"pbrMetallicRoughness":{
				"baseColorTexture":{
					"index":13
				},
				"metallicFactor":0,
				"metallicRoughnessTexture":{
					"index":14
				}
			}
		},
		{
			"doubleSided":true,
			"name":"BlackMetal.001",
			"normalTexture":{
				"index":15
			},
			"pbrMetallicRoughness":{
				"baseColorTexture":{
					"index":16
				},
				"metallicRoughnessTexture":{
					"index":17
				}
			}
		},
		{
			"doubleSided":true,
			"name":"Eraser.002",
			"normalTexture":{
				"index":18
			},
			"pbrMetallicRoughness":{
				"baseColorTexture":{
					"index":19
				},
				"metallicFactor":0,
				"metallicRoughnessTexture":{
					"index":20
				}
			}
		},
		{
			"doubleSided":true,
			"name":"Lead.001",
			"normalTexture":{
				"index":21
			},
			"pbrMetallicRoughness":{
				"baseColorTexture":{
					"index":22
				},
				"metallicFactor":0,
				"metallicRoughnessTexture":{
					"index":23
				}
			}
		},
		{
			"doubleSided":true,
			"name":"Metal.001",
			"normalTexture":{
				"index":24
			},
			"pbrMetallicRoughness":{
				"baseColorTexture":{
					"index":25
				},
				"metallicRoughnessTexture":{
					"index":26
				}
			}
		},
		{
			"doubleSided":true,
			"name":"Shaft.001",
			"normalTexture":{
				"index":27
			},
			"pbrMetallicRoughness":{
				"baseColorTexture":{
					"index":28
				},
				"metallicFactor":0,
				"metallicRoughnessTexture":{
					"index":29
				}
			}
		},
		{
			"doubleSided":true,
			"name":"Wood.001",
			"normalTexture":{
				"index":30
			},
			"pbrMetallicRoughness":{
				"baseColorTexture":{
					"index":31
				},
				"metallicFactor":0,
				"metallicRoughnessTexture":{
					"index":32
				}
			}
		},
		{
			"doubleSided":true,
			"name":"PenHolder.001",
			"normalTexture":{
				"index":33
			},
			"pbrMetallicRoughness":{
				"baseColorTexture":{
					"index":34
				},
				"metallicFactor":0,
				"metallicRoughnessTexture":{
					"index":35
				}
			}
		}
	],
	"meshes":[
		{
			"name":"BlackBallPen_BlackBallpenShaft_0.001",
			"primitives":[
				{
					"attributes":{
						"POSITION":0,
						"NORMAL":1,
						"TEXCOORD_0":2
					},
					"indices":3,
					"material":0
				}
			]
		},
		{
			"name":"BlackBallPen_BlackCap_0.001",
			"primitives":[
				{
					"attributes":{
						"POSITION":4,
						"NORMAL":5,
						"TEXCOORD_0":6
					},
					"indices":7,
					"material":1
				}
			]
		},
		{
			"name":"BlackBallPen_BlackCover_0.001",
			"primitives":[
				{
					"attributes":{
						"POSITION":8,
						"NORMAL":9,
						"TEXCOORD_0":10
					},
					"indices":11,
					"material":2
				}
			]
		},
		{
			"name":"BlackBallPen_BlackInk_0.001",
			"primitives":[
				{
					"attributes":{
						"POSITION":12,
						"NORMAL":13,
						"TEXCOORD_0":14
					},
					"indices":15,
					"material":3
				}
			]
		},
		{
			"name":"BlackBallPen_BlackInkHolder_0.001",
			"primitives":[
				{
					"attributes":{
						"POSITION":16,
						"NORMAL":17,
						"TEXCOORD_0":18
					},
					"indices":19,
					"material":4
				}
			]
		},
		{
			"name":"BlackBallPen_BlackMetal_0.001",
			"primitives":[
				{
					"attributes":{
						"POSITION":20,
						"NORMAL":21,
						"TEXCOORD_0":22
					},
					"indices":23,
					"material":5
				}
			]
		},
		{
			"name":"Pencils_Eraser_0.001",
			"primitives":[
				{
					"attributes":{
						"POSITION":24,
						"NORMAL":25,
						"TEXCOORD_0":26
					},
					"indices":27,
					"material":6
				}
			]
		},
		{
			"name":"Pencils_Lead_0.001",
			"primitives":[
				{
					"attributes":{
						"POSITION":28,
						"NORMAL":29,
						"TEXCOORD_0":30
					},
					"indices":31,
					"material":7
				}
			]
		},
		{
			"name":"Pencils_Metal_0.001",
			"primitives":[
				{
					"attributes":{
						"POSITION":32,
						"NORMAL":33,
						"TEXCOORD_0":34
					},
					"indices":35,
					"material":8
				}
			]
		},
		{
			"name":"Pencils_Shaft_0.001",
			"primitives":[
				{
					"attributes":{
						"POSITION":36,
						"NORMAL":37,
						"TEXCOORD_0":38
					},
					"indices":39,
					"material":9
				}
			]
		},
		{
			"name":"Pencils_Wood_0.001",
			"primitives":[
				{
					"attributes":{
						"POSITION":40,
						"NORMAL":41,
						"TEXCOORD_0":42
					},
					"indices":43,
					"material":10
				}
			]
		},
		{
			"name":"PenHolder_PenHolder_0.001",
			"primitives":[
				{
					"attributes":{
						"POSITION":44,
						"NORMAL":45,
						"TEXCOORD_0":46
					},
					"indices":47,
					"material":11
				}
			]
		}
	],
	"textures":[
		{
			"sampler":0,
			"source":0
		},
		{
			"sampler":0,
			"source":1
		},
		{
			"sampler":0,
			"source":2
		},
		{
			"sampler":0,
			"source":3
		},
		{
			"sampler":0,
			"source":4
		},
		{
			"sampler":0,
			"source":5
		},
		{
			"sampler":0,
			"source":6
		},
		{
			"sampler":0,
			"source":7
		},
		{
			"sampler":0,
			"source":8
		},
		{
			"sampler":0,
			"source":9
		},
		{
			"sampler":0,
			"source":10
		},
		{
			"sampler":0,
			"source":11
		},
		{
			"sampler":0,
			"source":12
		},
		{
			"sampler":0,
			"source":13
		},
		{
			"sampler":0,
			"source":14
		},
		{
			"sampler":0,
			"source":15
		},
		{
			"sampler":0,
			"source":16
		},
		{
			"sampler":0,
			"source":17
		},
		{
			"sampler":0,
			"source":18
		},
		{
			"sampler":0,
			"source":19
		},
		{
			"sampler":0,
			"source":20
		},
		{
			"sampler":0,
			"source":21
		},
		{
			"sampler":0,
			"source":22
		},
		{
			"sampler":0,
			"source":23
		},
		{
			"sampler":0,
			"source":15
		},
		{
			"sampler":0,
			"source":24
		},
		{
			"sampler":0,
			"source":25
		},
		{
			"sampler":0,
			"source":26
		},
		{
			"sampler":0,
			"source":27
		},
		{
			"sampler":0,
			"source":28
		},
		{
			"sampler":0,
			"source":29
		},
		{
			"sampler":0,
			"source":30
		},
		{
			"sampler":0,
			"source":31
		},
		{
			"sampler":0,
			"source":32
		},
		{
			"sampler":0,
			"source":33
		},
		{
			"sampler":0,
			"source":34
		}
	],
	"images":[
		{
			"mimeType":"image/jpeg",
			"name":"BlackBallpenShaft_normal",
			"uri":"BlackBallpenShaft_normal.jpg"
		},
		{
			"mimeType":"image/png",
			"name":"BlackBallpenShaft_baseColor",
			"uri":"BlackBallpenShaft_baseColor.png"
		},
		{
			"mimeType":"image/jpeg",
			"name":"BlackBallpenShaft_metallicRoughness",
			"uri":"BlackBallpenShaft_metallicRoughness.jpg"
		},
		{
			"mimeType":"image/jpeg",
			"name":"BlackCap_normal",
			"uri":"BlackCap_normal.jpg"
		},
		{
			"mimeType":"image/jpeg",
			"name":"BlackCap_baseColor",
			"uri":"BlackCap_baseColor.jpg"
		},
		{
			"mimeType":"image/jpeg",
			"name":"BlackCap_metallicRoughness",
			"uri":"BlackCap_metallicRoughness.jpg"
		},
		{
			"mimeType":"image/jpeg",
			"name":"BlackCover_normal",
			"uri":"BlackCover_normal.jpg"
		},
		{
			"mimeType":"image/jpeg",
			"name":"BlackCover_baseColor",
			"uri":"BlackCover_baseColor.jpg"
		},
		{
			"mimeType":"image/jpeg",
			"name":"BlackCover_metallicRoughness",
			"uri":"BlackCover_metallicRoughness.jpg"
		},
		{
			"mimeType":"image/jpeg",
			"name":"BlackInk_normal",
			"uri":"BlackInk_normal.jpg"
		},
		{
			"mimeType":"image/jpeg",
			"name":"BlackInk_baseColor",
			"uri":"BlackInk_baseColor.jpg"
		},
		{
			"mimeType":"image/jpeg",
			"name":"BlackInk_metallicRoughness",
			"uri":"BlackInk_metallicRoughness.jpg"
		},
		{
			"mimeType":"image/jpeg",
			"name":"BlackInkHolder_normal",
			"uri":"BlackInkHolder_normal.jpg"
		},
		{
			"mimeType":"image/jpeg",
			"name":"BlackInkHolder_baseColor",
			"uri":"BlackInkHolder_baseColor.jpg"
		},
		{
			"mimeType":"image/jpeg",
			"name":"BlackInkHolder_metallicRoughness",
			"uri":"BlackInkHolder_metallicRoughness.jpg"
		},
		{
			"mimeType":"image/jpeg",
			"name":"Metal_normal",
			"uri":"Metal_normal.jpg"
		},
		{
			"mimeType":"image/jpeg",
			"name":"BlackMetal_baseColor",
			"uri":"BlackMetal_baseColor.jpg"
		},
		{
			"mimeType":"image/jpeg",
			"name":"BlackMetal_metallicRoughness",
			"uri":"BlackMetal_metallicRoughness.jpg"
		},
		{
			"mimeType":"image/jpeg",
			"name":"Eraser_normal",
			"uri":"Eraser_normal.jpg"
		},
		{
			"mimeType":"image/jpeg",
			"name":"Eraser_baseColor",
			"uri":"Eraser_baseColor.jpg"
		},
		{
			"mimeType":"image/jpeg",
			"name":"Eraser_metallicRoughness",
			"uri":"Eraser_metallicRoughness.jpg"
		},
		{
			"mimeType":"image/jpeg",
			"name":"Lead_normal",
			"uri":"Lead_normal.jpg"
		},
		{
			"mimeType":"image/jpeg",
			"name":"Lead_baseColor",
			"uri":"Lead_baseColor.jpg"
		},
		{
			"mimeType":"image/jpeg",
			"name":"Lead_metallicRoughness",
			"uri":"Lead_metallicRoughness.jpg"
		},
		{
			"mimeType":"image/jpeg",
			"name":"Metal_baseColor",
			"uri":"Metal_baseColor.jpg"
		},
		{
			"mimeType":"image/jpeg",
			"name":"Metal_metallicRoughness",
			"uri":"Metal_metallicRoughness.jpg"
		},
		{
			"mimeType":"image/jpeg",
			"name":"Shaft_normal",
			"uri":"Shaft_normal.jpg"
		},
		{
			"mimeType":"image/jpeg",
			"name":"Shaft_baseColor",
			"uri":"Shaft_baseColor.jpg"
		},
		{
			"mimeType":"image/jpeg",
			"name":"Shaft_metallicRoughness",
			"uri":"Shaft_metallicRoughness.jpg"
		},
		{
			"mimeType":"image/jpeg",
			"name":"Wood_normal",
			"uri":"Wood_normal.jpg"
		},
		{
			"mimeType":"image/jpeg",
			"name":"Wood_baseColor",
			"uri":"Wood_baseColor.jpg"
		},
		{
			"mimeType":"image/jpeg",
			"name":"Wood_metallicRoughness",
			"uri":"Wood_metallicRoughness.jpg"
		},
		{
			"mimeType":"image/jpeg",
			"name":"PenHolder_normal",
			"uri":"PenHolder_normal.jpg"
		},
		{
			"mimeType":"image/jpeg",
			"name":"PenHolder_baseColor",
			"uri":"PenHolder_baseColor.jpg"
		},
		{
			"mimeType":"image/jpeg",
			"name":"PenHolder_metallicRoughness",
			"uri":"PenHolder_metallicRoughness.jpg"
		}
	],
	"accessors":[
		{
			"bufferView":0,
			"componentType":5126,
			"count":20912,
			"max":[
				0.03680652379989624,
				0.1729295253753662,
				0.04816925525665283
			],
			"min":[
				0.006303668022155762,
				0.023745059967041016,
				-0.04709625244140625
			],
			"type":"VEC3"
		},
		{
			"bufferView":1,
			"componentType":5126,
			"count":20912,
			"type":"VEC3"
		},
		{
			"bufferView":2,
			"componentType":5126,
			"count":20912,
			"type":"VEC2"
		},
		{
			"bufferView":3,
			"componentType":5123,
			"count":32256,
			"type":"SCALAR"
		},
		{
			"bufferView":4,
			"componentType":5126,
			"count":272,
			"max":[
				0.03753918409347534,
				0.1906752586364746,
				0.050884127616882324
			],
			"min":[
				0.006384491920471191,
				0.17074060440063477,
				-0.04948021471500397
			],
			"type":"VEC3"
		},
		{
			"bufferView":5,
			"componentType":5126,
			"count":272,
			"type":"VEC3"
		},
		{
			"bufferView":6,
			"componentType":5126,
			"count":272,
			"type":"VEC2"
		},
		{
			"bufferView":7,
			"componentType":5123,
			"count":948,
			"type":"SCALAR"
		},
		{
			"bufferView":8,
			"componentType":5126,
			"count":1499,
			"max":[
				0.02560478448867798,
				0.090920090675354,
				0.031721144914627075
			],
			"min":[
				0.010195553302764893,
				0.0029278993606567383,
				-0.03259539604187012
			],
			"type":"VEC3"
		},
		{
			"bufferView":9,
			"componentType":5126,
			"count":1499,
			"type":"VEC3"
		},
		{
			"bufferView":10,
			"componentType":5126,
			"count":1499,
			"type":"VEC2"
		},
		{
			"bufferView":11,
			"componentType":5123,
			"count":2748,
			"type":"SCALAR"
		},
		{
			"bufferView":12,
			"componentType":5126,
			"count":136,
			"max":[
				0.031492769718170166,
				0.16346466541290283,
				0.04200577735900879
			],
			"min":[
				0.011245310306549072,
				0.008968353271484375,
				-0.041061148047447205
			],
			"type":"VEC3"
		},
		{
			"bufferView":13,
			"componentType":5126,
			"count":136,
			"type":"VEC3"
		},
		{
			"bufferView":14,
			"componentType":5126,
			"count":136,
			"type":"VEC2"
		},
		{
			"bufferView":15,
			"componentType":5123,
			"count":384,
			"type":"SCALAR"
		},
		{
			"bufferView":16,
			"componentType":5126,
			"count":739,
			"max":[
				0.03308337926864624,
				0.17871344089508057,
				0.045259177684783936
			],
			"min":[
				0.010341644287109375,
				0.16314947605133057,
				-0.04403960704803467
			],
			"type":"VEC3"
		},
		{
			"bufferView":17,
			"componentType":5126,
			"count":739,
			"type":"VEC3"
		},
		{
			"bufferView":18,
			"componentType":5126,
			"count":739,
			"type":"VEC2"
		},
		{
			"bufferView":19,
			"componentType":5123,
			"count":1152,
			"type":"SCALAR"
		},
		{
			"bufferView":20,
			"componentType":5126,
			"count":1309,
			"max":[
				0.02503889799118042,
				0.02585911750793457,
				0.016509205102920532
			],
			"min":[
				0.011473119258880615,
				0.006685495376586914,
				-0.018085166811943054
			],
			"type":"VEC3"
		},
		{
			"bufferView":21,
			"componentType":5126,
			"count":1309,
			"type":"VEC3"
		},
		{
			"bufferView":22,
			"componentType":5126,
			"count":1309,
			"type":"VEC2"
		},
		{
			"bufferView":23,
			"componentType":5123,
			"count":3252,
			"type":"SCALAR"
		},
		{
			"bufferView":24,
			"componentType":5126,
			"count":5205,
			"max":[
				-0.006573975086212158,
				0.17937684059143066,
				0.0407223105430603
			],
			"min":[
				-0.06079065799713135,
				0.11608612537384033,
				-0.018592312932014465
			],
			"type":"VEC3"
		},
		{
			"bufferView":25,
			"componentType":5126,
			"count":5205,
			"type":"VEC3"
		},
		{
			"bufferView":26,
			"componentType":5126,
			"count":5205,
			"type":"VEC2"
		},
		{
			"bufferView":27,
			"componentType":5123,
			"count":27360,
			"type":"SCALAR"
		},
		{
			"bufferView":28,
			"componentType":5126,
			"count":215,
			"max":[
				0.011807262897491455,
				0.005963563919067383,
				0.009627372026443481
			],
			"min":[
				-0.0021008849143981934,
				0.0032526254653930664,
				-0.02214089035987854
			],
			"type":"VEC3"
		},
		{
			"bufferView":29,
			"componentType":5126,
			"count":215,
			"type":"VEC3"
		},
		{
			"bufferView":30,
			"componentType":5126,
			"count":215,
			"type":"VEC2"
		},
		{
			"bufferView":31,
			"componentType":5123,
			"count":306,
			"type":"SCALAR"
		},
		{
			"bufferView":32,
			"componentType":5126,
			"count":31644,
			"max":[
				-0.0038374662399291992,
				0.17204785346984863,
				0.0398421585559845
			],
			"min":[
				-0.058992981910705566,
				0.10540473461151123,
				-0.019740864634513855
			],
			"type":"VEC3"
		},
		{
			"bufferView":33,
			"componentType":5126,
			"count":31644,
			"type":"VEC3"
		},
		{
			"bufferView":34,
			"componentType":5126,
			"count":31644,
			"type":"VEC2"
		},
		{
			"bufferView":35,
			"componentType":5123,
			"count":36720,
			"type":"SCALAR"
		},
		{
			"bufferView":36,
			"componentType":5126,
			"count":966,
			"max":[
				0.013820290565490723,
				0.16125500202178955,
				0.03731495141983032
			],
			"min":[
				-0.054556846618652344,
				0.013390421867370605,
				-0.026178643107414246
			],
			"type":"VEC3"
		},
		{
			"bufferView":37,
			"componentType":5126,
			"count":966,
			"type":"VEC3"
		},
		{
			"bufferView":38,
			"componentType":5126,
			"count":966,
			"type":"VEC2"
		},
		{
			"bufferView":39,
			"componentType":5123,
			"count":3240,
			"type":"SCALAR"
		},
		{
			"bufferView":40,
			"componentType":5126,
			"count":156,
			"max":[
				0.013537049293518066,
				0.019586563110351562,
				0.016993790864944458
			],
			"min":[
				-0.009168684482574463,
				0.0055648088455200195,
				-0.026178643107414246
			],
			"type":"VEC3"
		},
		{
			"bufferView":41,
			"componentType":5126,
			"count":156,
			"type":"VEC3"
		},
		{
			"bufferView":42,
			"componentType":5126,
			"count":156,
			"type":"VEC2"
		},
		{
			"bufferView":43,
			"componentType":5123,
			"count":324,
			"type":"SCALAR"
		},
		{
			"bufferView":44,
			"componentType":5126,
			"count":33274,
			"max":[
				0.04196697473526001,
				0.08808541297912598,
				0.03564593195915222
			],
			"min":[
				-0.031534671783447266,
				-0.0006126165390014648,
				-0.03785569965839386
			],
			"type":"VEC3"
		},
		{
			"bufferView":45,
			"componentType":5126,
			"count":33274,
			"type":"VEC3"
		},
		{
			"bufferView":46,
			"componentType":5126,
			"count":33274,
			"type":"VEC2"
		},
		{
			"bufferView":47,
			"componentType":5123,
			"count":40704,
			"type":"SCALAR"
		}
	],
	"bufferViews":[
		{
			"buffer":0,
			"byteLength":250944,
			"byteOffset":0,
			"target":34962
		},
		{
			"buffer":0,
			"byteLength":250944,
			"byteOffset":250944,
			"target":34962
		},
		{
			"buffer":0,
			"byteLength":167296,
			"byteOffset":501888,
			"target":34962
		},
		{
			"buffer":0,
			"byteLength":64512,
			"byteOffset":669184,
			"target":34963
		},
		{
			"buffer":0,
			"byteLength":3264,
			"byteOffset":733696,
			"target":34962
		},
		{
			"buffer":0,
			"byteLength":3264,
			"byteOffset":736960,
			"target":34962
		},
		{
			"buffer":0,
			"byteLength":2176,
			"byteOffset":740224,
			"target":34962
		},
		{
			"buffer":0,
			"byteLength":1896,
			"byteOffset":742400,
			"target":34963
		},
		{
			"buffer":0,
			"byteLength":17988,
			"byteOffset":744296,
			"target":34962
		},
		{
			"buffer":0,
			"byteLength":17988,
			"byteOffset":762284,
			"target":34962
		},
		{
			"buffer":0,
			"byteLength":11992,
			"byteOffset":780272,
			"target":34962
		},
		{
			"buffer":0,
			"byteLength":5496,
			"byteOffset":792264,
			"target":34963
		},
		{
			"buffer":0,
			"byteLength":1632,
			"byteOffset":797760,
			"target":34962
		},
		{
			"buffer":0,
			"byteLength":1632,
			"byteOffset":799392,
			"target":34962
		},
		{
			"buffer":0,
			"byteLength":1088,
			"byteOffset":801024,
			"target":34962
		},
		{
			"buffer":0,
			"byteLength":768,
			"byteOffset":802112,
			"target":34963
		},
		{
			"buffer":0,
			"byteLength":8868,
			"byteOffset":802880,
			"target":34962
		},
		{
			"buffer":0,
			"byteLength":8868,
			"byteOffset":811748,
			"target":34962
		},
		{
			"buffer":0,
			"byteLength":5912,
			"byteOffset":820616,
			"target":34962
		},
		{
			"buffer":0,
			"byteLength":2304,
			"byteOffset":826528,
			"target":34963
		},
		{
			"buffer":0,
			"byteLength":15708,
			"byteOffset":828832,
			"target":34962
		},
		{
			"buffer":0,
			"byteLength":15708,
			"byteOffset":844540,
			"target":34962
		},
		{
			"buffer":0,
			"byteLength":10472,
			"byteOffset":860248,
			"target":34962
		},
		{
			"buffer":0,
			"byteLength":6504,
			"byteOffset":870720,
			"target":34963
		},
		{
			"buffer":0,
			"byteLength":62460,
			"byteOffset":877224,
			"target":34962
		},
		{
			"buffer":0,
			"byteLength":62460,
			"byteOffset":939684,
			"target":34962
		},
		{
			"buffer":0,
			"byteLength":41640,
			"byteOffset":1002144,
			"target":34962
		},
		{
			"buffer":0,
			"byteLength":54720,
			"byteOffset":1043784,
			"target":34963
		},
		{
			"buffer":0,
			"byteLength":2580,
			"byteOffset":1098504,
			"target":34962
		},
		{
			"buffer":0,
			"byteLength":2580,
			"byteOffset":1101084,
			"target":34962
		},
		{
			"buffer":0,
			"byteLength":1720,
			"byteOffset":1103664,
			"target":34962
		},
		{
			"buffer":0,
			"byteLength":612,
			"byteOffset":1105384,
			"target":34963
		},
		{
			"buffer":0,
			"byteLength":379728,
			"byteOffset":1105996,
			"target":34962
		},
		{
			"buffer":0,
			"byteLength":379728,
			"byteOffset":1485724,
			"target":34962
		},
		{
			"buffer":0,
			"byteLength":253152,
			"byteOffset":1865452,
			"target":34962
		},
		{
			"buffer":0,
			"byteLength":73440,
			"byteOffset":2118604,
			"target":34963
		},
		{
			"buffer":0,
			"byteLength":11592,
			"byteOffset":2192044,
			"target":34962
		},
		{
			"buffer":0,
			"byteLength":11592,
			"byteOffset":2203636,
			"target":34962
		},
		{
			"buffer":0,
			"byteLength":7728,
			"byteOffset":2215228,
			"target":34962
		},
		{
			"buffer":0,
			"byteLength":6480,
			"byteOffset":2222956,
			"target":34963
		},
		{
			"buffer":0,
			"byteLength":1872,
			"byteOffset":2229436,
			"target":34962
		},
		{
			"buffer":0,
			"byteLength":1872,
			"byteOffset":2231308,
			"target":34962
		},
		{
			"buffer":0,
			"byteLength":1248,
			"byteOffset":2233180,
			"target":34962
		},
		{
			"buffer":0,
			"byteLength":648,
			"byteOffset":2234428,
			"target":34963
		},
		{
			"buffer":0,
			"byteLength":399288,
			"byteOffset":2235076,
			"target":34962
		},
		{
			"buffer":0,
			"byteLength":399288,
			"byteOffset":2634364,
			"target":34962
		},
		{
			"buffer":0,
			"byteLength":266192,
			"byteOffset":3033652,
			"target":34962
		},
		{
			"buffer":0,
			"byteLength":81408,
			"byteOffset":3299844,
			"target":34963
		}
	],
	"samplers":[
		{
			"magFilter":9729,
			"minFilter":9987
		}
	],
	"buffers":[
		{
			"byteLength":3381252,
			"uri":"scene.bin"
		}
	]
}
