{
	"asset":{
		"generator":"Khronos glTF Blender I/O v4.2.57",
		"version":"2.0"
	},
	"extensionsUsed":[
		"KHR_materials_unlit",
		"KHR_materials_emissive_strength"
	],
	"scene":0,
	"scenes":[
		{
			"name":"Scene",
			"nodes":[
				0,
				1,
				2,
				3,
				4,
				5,
				6,
				7,
				8,
				9,
				10,
				11,
				12,
				13,
				14
			]
		}
	],
	"nodes":[
		{
			"mesh":0,
			"name":"Leafs_Leafs1_0"
		},
		{
			"mesh":1,
			"name":"Cylinder_Material.002_0"
		},
		{
			"mesh":2,
			"name":"Cylinder_Material.001_0"
		},
		{
			"mesh":3,
			"name":"Cylinder.001_Material_0"
		},
		{
			"mesh":4,
			"name":"Cube_Material_0.001"
		},
		{
			"mesh":5,
			"name":"Cube.015"
		},
		{
			"mesh":6,
			"name":"Cube.013"
		},
		{
			"mesh":7,
			"name":"Cube.005_Material_0"
		},
		{
			"mesh":8,
			"name":"Cube.005_Material.009_0"
		},
		{
			"mesh":9,
			"name":"Cube.003_Material.005_0"
		},
		{
			"mesh":10,
			"name":"Cube.003_Material.001_0"
		},
		{
			"mesh":11,
			"name":"Cube.002_Material.004_0"
		},
		{
			"mesh":12,
			"name":"Cube.002_Material.001_0"
		},
		{
			"mesh":13,
			"name":"Cube.001_Material.003_0"
		},
		{
			"mesh":14,
			"name":"Cube.001_Material.001_0"
		}
	],
	"materials":[
		{
			"alphaCutoff":0.5002850294113159,
			"alphaMode":"MASK",
			"doubleSided":true,
			"extensions":{
				"KHR_materials_unlit":{}
			},
			"name":"Leafs1",
			"pbrMetallicRoughness":{
				"baseColorTexture":{
					"index":0
				},
				"metallicFactor":0,
				"roughnessFactor":0.9
			}
		},
		{
			"doubleSided":true,
			"emissiveFactor":[
				0.29559100046753883,
				0.01724789966829121,
				0
			],
			"name":"Material.017",
			"pbrMetallicRoughness":{
				"baseColorFactor":[
					0.8012750148773193,
					0.04720830172300339,
					0.08523759990930557,
					1
				],
				"metallicFactor":0,
				"roughnessFactor":0.952982485294342
			}
		},
		{
			"doubleSided":true,
			"name":"Material.016",
			"pbrMetallicRoughness":{
				"baseColorFactor":[
					0.05599990114569664,
					0.05599990114569664,
					0.05599990114569664,
					1
				],
				"metallicFactor":0
			}
		},
		{
			"doubleSided":true,
			"name":"Material.010",
			"pbrMetallicRoughness":{
				"baseColorFactor":[
					0,
					0,
					0,
					1
				],
				"metallicFactor":0
			}
		},
		{
			"doubleSided":true,
			"name":"Material.002",
			"pbrMetallicRoughness":{
				"baseColorTexture":{
					"index":1
				},
				"metallicFactor":0,
				"roughnessFactor":0.5
			}
		},
		{
			"doubleSided":true,
			"emissiveFactor":[
				0.05003202334046364,
				0.00900487694889307,
				1
			],
			"extensions":{
				"KHR_materials_emissive_strength":{
					"emissiveStrength":100
				}
			},
			"name":"Material.014",
			"pbrMetallicRoughness":{
				"baseColorFactor":[
					0,
					0,
					0,
					1
				]
			}
		},
		{
			"doubleSided":true,
			"name":"Material.020",
			"pbrMetallicRoughness":{
				"baseColorFactor":[
					0.8003230094909668,
					0.4131540060043335,
					0.03379499912261963,
					1
				],
				"metallicFactor":0,
				"roughnessFactor":0.8625428676605225
			}
		},
		{
			"doubleSided":true,
			"emissiveFactor":[
				0.7710529863834381,
				0,
				0.41251201182603836
			],
			"name":"Material.018",
			"pbrMetallicRoughness":{
				"baseColorFactor":[
					0.8013420104980469,
					0.008661950007081032,
					0.6986140012741089,
					1
				],
				"metallicFactor":0,
				"roughnessFactor":0.9492412209510803
			}
		},
		{
			"doubleSided":true,
			"emissiveFactor":[
				0.0173075997736305,
				0,
				0.4228150099515915
			],
			"name":"Material.019",
			"pbrMetallicRoughness":{
				"baseColorFactor":[
					0.14736300706863403,
					0.11050999909639359,
					1,
					1
				],
				"metallicFactor":0,
				"roughnessFactor":0.9591769576072693
			}
		},
		{
			"doubleSided":true,
			"emissiveFactor":[
				0,
				0.38202501833438873,
				0.0429794006049633
			],
			"name":"Material.015",
			"pbrMetallicRoughness":{
				"baseColorFactor":[
					0.004146180115640163,
					1,
					0,
					1
				],
				"metallicFactor":0,
				"roughnessFactor":0.8398793339729309
			}
		}
	],
	"meshes":[
		{
			"name":"Leafs_Leafs1_0",
			"primitives":[
				{
					"attributes":{
						"POSITION":0,
						"NORMAL":1,
						"TEXCOORD_0":2
					},
					"indices":3,
					"material":0
				}
			]
		},
		{
			"name":"Cylinder_Material.002_0",
			"primitives":[
				{
					"attributes":{
						"POSITION":4,
						"NORMAL":5,
						"TEXCOORD_0":6
					},
					"indices":7,
					"material":1
				}
			]
		},
		{
			"name":"Cylinder_Material.001_0",
			"primitives":[
				{
					"attributes":{
						"POSITION":8,
						"NORMAL":9,
						"TEXCOORD_0":10
					},
					"indices":11,
					"material":2
				}
			]
		},
		{
			"name":"Cylinder.001_Material_0",
			"primitives":[
				{
					"attributes":{
						"POSITION":12,
						"NORMAL":13,
						"TEXCOORD_0":14
					},
					"indices":15,
					"material":3
				}
			]
		},
		{
			"name":"Cube_Material_0.001",
			"primitives":[
				{
					"attributes":{
						"POSITION":16,
						"NORMAL":17,
						"TEXCOORD_0":18
					},
					"indices":19,
					"material":3
				}
			]
		},
		{
			"name":"Cube.022",
			"primitives":[
				{
					"attributes":{
						"POSITION":20,
						"NORMAL":21,
						"TEXCOORD_0":22
					},
					"indices":23,
					"material":4
				},
				{
					"attributes":{
						"POSITION":24,
						"NORMAL":25,
						"TEXCOORD_0":26
					},
					"indices":27,
					"material":5
				}
			]
		},
		{
			"name":"Cube.024",
			"primitives":[
				{
					"attributes":{
						"POSITION":28,
						"NORMAL":29,
						"TEXCOORD_0":30
					},
					"indices":23,
					"material":4
				},
				{
					"attributes":{
						"POSITION":31,
						"NORMAL":32,
						"TEXCOORD_0":33
					},
					"indices":27,
					"material":5
				}
			]
		},
		{
			"name":"Cube.005_Material_0",
			"primitives":[
				{
					"attributes":{
						"POSITION":34,
						"NORMAL":35,
						"TEXCOORD_0":36
					},
					"indices":37,
					"material":3
				}
			]
		},
		{
			"name":"Cube.005_Material.009_0",
			"primitives":[
				{
					"attributes":{
						"POSITION":38,
						"NORMAL":39,
						"TEXCOORD_0":40
					},
					"indices":41,
					"material":6
				}
			]
		},
		{
			"name":"Cube.003_Material.005_0",
			"primitives":[
				{
					"attributes":{
						"POSITION":42,
						"NORMAL":43,
						"TEXCOORD_0":44
					},
					"indices":45,
					"material":7
				}
			]
		},
		{
			"name":"Cube.003_Material.001_0",
			"primitives":[
				{
					"attributes":{
						"POSITION":46,
						"NORMAL":47,
						"TEXCOORD_0":48
					},
					"indices":49,
					"material":2
				}
			]
		},
		{
			"name":"Cube.002_Material.004_0",
			"primitives":[
				{
					"attributes":{
						"POSITION":50,
						"NORMAL":51,
						"TEXCOORD_0":52
					},
					"indices":53,
					"material":8
				}
			]
		},
		{
			"name":"Cube.002_Material.001_0",
			"primitives":[
				{
					"attributes":{
						"POSITION":54,
						"NORMAL":55,
						"TEXCOORD_0":56
					},
					"indices":57,
					"material":2
				}
			]
		},
		{
			"name":"Cube.001_Material.003_0",
			"primitives":[
				{
					"attributes":{
						"POSITION":58,
						"NORMAL":59,
						"TEXCOORD_0":60
					},
					"indices":61,
					"material":9
				}
			]
		},
		{
			"name":"Cube.001_Material.001_0",
			"primitives":[
				{
					"attributes":{
						"POSITION":62,
						"NORMAL":63,
						"TEXCOORD_0":64
					},
					"indices":65,
					"material":2
				}
			]
		}
	],
	"textures":[
		{
			"sampler":0,
			"source":0
		},
		{
			"sampler":0,
			"source":1
		}
	],
	"images":[
		{
			"mimeType":"image/jpeg",
			"name":"Leafs1_baseColor",
			"uri":"Leafs1_baseColor.jpg"
		},
		{
			"mimeType":"image/jpeg",
			"name":"024cb4c9894df2b015e9d80131b4f1ec",
			"uri":"024cb4c9894df2b015e9d80131b4f1ec.jpg"
		}
	],
	"accessors":[
		{
			"bufferView":0,
			"componentType":5126,
			"count":774,
			"max":[
				0.2539860010147095,
				0.8342337608337402,
				0.31179875135421753
			],
			"min":[
				-1.6635124683380127,
				0.012816190719604492,
				-0.3133106231689453
			],
			"type":"VEC3"
		},
		{
			"bufferView":1,
			"componentType":5126,
			"count":774,
			"type":"VEC3"
		},
		{
			"bufferView":2,
			"componentType":5126,
			"count":774,
			"type":"VEC2"
		},
		{
			"bufferView":3,
			"componentType":5123,
			"count":1800,
			"type":"SCALAR"
		},
		{
			"bufferView":4,
			"componentType":5126,
			"count":670,
			"max":[
				0.6676549911499023,
				1.442540168762207,
				0.12252725660800934
			],
			"min":[
				0.3805909752845764,
				1.1608774662017822,
				-0.03156565874814987
			],
			"type":"VEC3"
		},
		{
			"bufferView":5,
			"componentType":5126,
			"count":670,
			"type":"VEC3"
		},
		{
			"bufferView":6,
			"componentType":5126,
			"count":670,
			"type":"VEC2"
		},
		{
			"bufferView":7,
			"componentType":5123,
			"count":1920,
			"type":"SCALAR"
		},
		{
			"bufferView":8,
			"componentType":5126,
			"count":64,
			"max":[
				0.6563245058059692,
				1.436819076538086,
				0.12195833772420883
			],
			"min":[
				0.3863210082054138,
				1.1665985584259033,
				0.11060653626918793
			],
			"type":"VEC3"
		},
		{
			"bufferView":9,
			"componentType":5126,
			"count":64,
			"type":"VEC3"
		},
		{
			"bufferView":10,
			"componentType":5126,
			"count":64,
			"type":"VEC2"
		},
		{
			"bufferView":11,
			"componentType":5123,
			"count":192,
			"type":"SCALAR"
		},
		{
			"bufferView":12,
			"componentType":5126,
			"count":464,
			"max":[
				-0.1698886901140213,
				1.150862693786621,
				0.04319149628281593
			],
			"min":[
				-0.24252711236476898,
				1.078627586364746,
				-0.011156216263771057
			],
			"type":"VEC3"
		},
		{
			"bufferView":13,
			"componentType":5126,
			"count":464,
			"type":"VEC3"
		},
		{
			"bufferView":14,
			"componentType":5126,
			"count":464,
			"type":"VEC2"
		},
		{
			"bufferView":15,
			"componentType":5123,
			"count":1518,
			"type":"SCALAR"
		},
		{
			"bufferView":16,
			"componentType":5126,
			"count":503,
			"max":[
				1.0691081285476685,
				1.1640442609786987,
				0.17712008953094482
			],
			"min":[
				-0.26949554681777954,
				1.016893982887268,
				-0.09611238539218903
			],
			"type":"VEC3"
		},
		{
			"bufferView":17,
			"componentType":5126,
			"count":503,
			"type":"VEC3"
		},
		{
			"bufferView":18,
			"componentType":5126,
			"count":503,
			"type":"VEC2"
		},
		{
			"bufferView":19,
			"componentType":5123,
			"count":1536,
			"type":"SCALAR"
		},
		{
			"bufferView":20,
			"componentType":5126,
			"count":42,
			"max":[
				1.2075436115264893,
				1.016845464706421,
				0.25330501794815063
			],
			"min":[
				-0.36470848321914673,
				0.9405139088630676,
				-0.3046966791152954
			],
			"type":"VEC3"
		},
		{
			"bufferView":21,
			"componentType":5126,
			"count":42,
			"type":"VEC3"
		},
		{
			"bufferView":22,
			"componentType":5126,
			"count":42,
			"type":"VEC2"
		},
		{
			"bufferView":23,
			"componentType":5123,
			"count":78,
			"type":"SCALAR"
		},
		{
			"bufferView":24,
			"componentType":5126,
			"count":4,
			"max":[
				1.1940512657165527,
				0.9780136942863464,
				0.24612203240394592
			],
			"min":[
				-0.3644995093345642,
				0.9405139088630676,
				0.15909813344478607
			],
			"type":"VEC3"
		},
		{
			"bufferView":25,
			"componentType":5126,
			"count":4,
			"type":"VEC3"
		},
		{
			"bufferView":26,
			"componentType":5126,
			"count":4,
			"type":"VEC2"
		},
		{
			"bufferView":27,
			"componentType":5123,
			"count":6,
			"type":"SCALAR"
		},
		{
			"bufferView":28,
			"componentType":5126,
			"count":42,
			"max":[
				0.10548800230026245,
				0.5653296709060669,
				0.24107035994529724
			],
			"min":[
				-1.3234310150146484,
				0.49573221802711487,
				-0.25267472863197327
			],
			"type":"VEC3"
		},
		{
			"bufferView":29,
			"componentType":5126,
			"count":42,
			"type":"VEC3"
		},
		{
			"bufferView":30,
			"componentType":5126,
			"count":42,
			"type":"VEC2"
		},
		{
			"bufferView":31,
			"componentType":5126,
			"count":4,
			"max":[
				0.09769695997238159,
				0.529923677444458,
				0.23451939225196838
			],
			"min":[
				-1.323310375213623,
				0.49573221802711487,
				0.17031064629554749
			],
			"type":"VEC3"
		},
		{
			"bufferView":32,
			"componentType":5126,
			"count":4,
			"type":"VEC3"
		},
		{
			"bufferView":33,
			"componentType":5126,
			"count":4,
			"type":"VEC2"
		},
		{
			"bufferView":34,
			"componentType":5126,
			"count":485,
			"max":[
				0.3944854140281677,
				1.0990941524505615,
				0.14654406905174255
			],
			"min":[
				0.3458635210990906,
				1.0886921882629395,
				0.09564094245433807
			],
			"type":"VEC3"
		},
		{
			"bufferView":35,
			"componentType":5126,
			"count":485,
			"type":"VEC3"
		},
		{
			"bufferView":36,
			"componentType":5126,
			"count":485,
			"type":"VEC2"
		},
		{
			"bufferView":37,
			"componentType":5123,
			"count":1752,
			"type":"SCALAR"
		},
		{
			"bufferView":38,
			"componentType":5126,
			"count":36,
			"max":[
				0.38424399495124817,
				1.0990941524505615,
				0.14023493230342865
			],
			"min":[
				0.3539111018180847,
				1.0981045961380005,
				0.0959637314081192
			],
			"type":"VEC3"
		},
		{
			"bufferView":39,
			"componentType":5126,
			"count":36,
			"type":"VEC3"
		},
		{
			"bufferView":40,
			"componentType":5126,
			"count":36,
			"type":"VEC2"
		},
		{
			"bufferView":41,
			"componentType":5123,
			"count":72,
			"type":"SCALAR"
		},
		{
			"bufferView":42,
			"componentType":5126,
			"count":82,
			"max":[
				0.06253421306610107,
				1.4410200119018555,
				0.09739796817302704
			],
			"min":[
				-0.22207516431808472,
				1.1617729663848877,
				-0.05507553368806839
			],
			"type":"VEC3"
		},
		{
			"bufferView":43,
			"componentType":5126,
			"count":82,
			"type":"VEC3"
		},
		{
			"bufferView":44,
			"componentType":5126,
			"count":82,
			"type":"VEC2"
		},
		{
			"bufferView":45,
			"componentType":5123,
			"count":168,
			"type":"SCALAR"
		},
		{
			"bufferView":46,
			"componentType":5126,
			"count":8,
			"max":[
				0.05026900768280029,
				1.4343363046646118,
				0.09713010489940643
			],
			"min":[
				-0.21539682149887085,
				1.1684566736221313,
				0.08647418767213821
			],
			"type":"VEC3"
		},
		{
			"bufferView":47,
			"componentType":5126,
			"count":8,
			"type":"VEC3"
		},
		{
			"bufferView":48,
			"componentType":5126,
			"count":8,
			"type":"VEC2"
		},
		{
			"bufferView":49,
			"componentType":5123,
			"count":24,
			"type":"SCALAR"
		},
		{
			"bufferView":50,
			"componentType":5126,
			"count":296,
			"max":[
				0.3585212826728821,
				1.4161499738693237,
				0.11023388057947159
			],
			"min":[
				0.09941965341567993,
				1.1625924110412598,
				-0.04323074221611023
			],
			"type":"VEC3"
		},
		{
			"bufferView":51,
			"componentType":5126,
			"count":296,
			"type":"VEC3"
		},
		{
			"bufferView":52,
			"componentType":5126,
			"count":296,
			"type":"VEC2"
		},
		{
			"bufferView":53,
			"componentType":5123,
			"count":672,
			"type":"SCALAR"
		},
		{
			"bufferView":54,
			"componentType":5126,
			"count":16,
			"max":[
				0.3471822142601013,
				1.41055428981781,
				0.11000961810350418
			],
			"min":[
				0.10501082241535187,
				1.1681880950927734,
				0.10029612481594086
			],
			"type":"VEC3"
		},
		{
			"bufferView":55,
			"componentType":5126,
			"count":16,
			"type":"VEC3"
		},
		{
			"bufferView":56,
			"componentType":5126,
			"count":16,
			"type":"VEC2"
		},
		{
			"bufferView":57,
			"componentType":5123,
			"count":30,
			"type":"SCALAR"
		},
		{
			"bufferView":58,
			"componentType":5126,
			"count":53,
			"max":[
				0.9205962419509888,
				1.434714674949646,
				0.1307094693183899
			],
			"min":[
				0.6419863700866699,
				1.1612460613250732,
				-0.019034840166568756
			],
			"type":"VEC3"
		},
		{
			"bufferView":59,
			"componentType":5126,
			"count":53,
			"type":"VEC3"
		},
		{
			"bufferView":60,
			"componentType":5126,
			"count":53,
			"type":"VEC2"
		},
		{
			"bufferView":61,
			"componentType":5123,
			"count":126,
			"type":"SCALAR"
		},
		{
			"bufferView":62,
			"componentType":5126,
			"count":6,
			"max":[
				0.9053629636764526,
				1.4222872257232666,
				0.13031348586082458
			],
			"min":[
				0.6518584489822388,
				1.167352318763733,
				0.12014541029930115
			],
			"type":"VEC3"
		},
		{
			"bufferView":63,
			"componentType":5126,
			"count":6,
			"type":"VEC3"
		},
		{
			"bufferView":64,
			"componentType":5126,
			"count":6,
			"type":"VEC2"
		},
		{
			"bufferView":65,
			"componentType":5123,
			"count":18,
			"type":"SCALAR"
		}
	],
	"bufferViews":[
		{
			"buffer":0,
			"byteLength":9288,
			"byteOffset":0,
			"target":34962
		},
		{
			"buffer":0,
			"byteLength":9288,
			"byteOffset":9288,
			"target":34962
		},
		{
			"buffer":0,
			"byteLength":6192,
			"byteOffset":18576,
			"target":34962
		},
		{
			"buffer":0,
			"byteLength":3600,
			"byteOffset":24768,
			"target":34963
		},
		{
			"buffer":0,
			"byteLength":8040,
			"byteOffset":28368,
			"target":34962
		},
		{
			"buffer":0,
			"byteLength":8040,
			"byteOffset":36408,
			"target":34962
		},
		{
			"buffer":0,
			"byteLength":5360,
			"byteOffset":44448,
			"target":34962
		},
		{
			"buffer":0,
			"byteLength":3840,
			"byteOffset":49808,
			"target":34963
		},
		{
			"buffer":0,
			"byteLength":768,
			"byteOffset":53648,
			"target":34962
		},
		{
			"buffer":0,
			"byteLength":768,
			"byteOffset":54416,
			"target":34962
		},
		{
			"buffer":0,
			"byteLength":512,
			"byteOffset":55184,
			"target":34962
		},
		{
			"buffer":0,
			"byteLength":384,
			"byteOffset":55696,
			"target":34963
		},
		{
			"buffer":0,
			"byteLength":5568,
			"byteOffset":56080,
			"target":34962
		},
		{
			"buffer":0,
			"byteLength":5568,
			"byteOffset":61648,
			"target":34962
		},
		{
			"buffer":0,
			"byteLength":3712,
			"byteOffset":67216,
			"target":34962
		},
		{
			"buffer":0,
			"byteLength":3036,
			"byteOffset":70928,
			"target":34963
		},
		{
			"buffer":0,
			"byteLength":6036,
			"byteOffset":73964,
			"target":34962
		},
		{
			"buffer":0,
			"byteLength":6036,
			"byteOffset":80000,
			"target":34962
		},
		{
			"buffer":0,
			"byteLength":4024,
			"byteOffset":86036,
			"target":34962
		},
		{
			"buffer":0,
			"byteLength":3072,
			"byteOffset":90060,
			"target":34963
		},
		{
			"buffer":0,
			"byteLength":504,
			"byteOffset":93132,
			"target":34962
		},
		{
			"buffer":0,
			"byteLength":504,
			"byteOffset":93636,
			"target":34962
		},
		{
			"buffer":0,
			"byteLength":336,
			"byteOffset":94140,
			"target":34962
		},
		{
			"buffer":0,
			"byteLength":156,
			"byteOffset":94476,
			"target":34963
		},
		{
			"buffer":0,
			"byteLength":48,
			"byteOffset":94632,
			"target":34962
		},
		{
			"buffer":0,
			"byteLength":48,
			"byteOffset":94680,
			"target":34962
		},
		{
			"buffer":0,
			"byteLength":32,
			"byteOffset":94728,
			"target":34962
		},
		{
			"buffer":0,
			"byteLength":12,
			"byteOffset":94760,
			"target":34963
		},
		{
			"buffer":0,
			"byteLength":504,
			"byteOffset":94772,
			"target":34962
		},
		{
			"buffer":0,
			"byteLength":504,
			"byteOffset":95276,
			"target":34962
		},
		{
			"buffer":0,
			"byteLength":336,
			"byteOffset":95780,
			"target":34962
		},
		{
			"buffer":0,
			"byteLength":48,
			"byteOffset":96116,
			"target":34962
		},
		{
			"buffer":0,
			"byteLength":48,
			"byteOffset":96164,
			"target":34962
		},
		{
			"buffer":0,
			"byteLength":32,
			"byteOffset":96212,
			"target":34962
		},
		{
			"buffer":0,
			"byteLength":5820,
			"byteOffset":96244,
			"target":34962
		},
		{
			"buffer":0,
			"byteLength":5820,
			"byteOffset":102064,
			"target":34962
		},
		{
			"buffer":0,
			"byteLength":3880,
			"byteOffset":107884,
			"target":34962
		},
		{
			"buffer":0,
			"byteLength":3504,
			"byteOffset":111764,
			"target":34963
		},
		{
			"buffer":0,
			"byteLength":432,
			"byteOffset":115268,
			"target":34962
		},
		{
			"buffer":0,
			"byteLength":432,
			"byteOffset":115700,
			"target":34962
		},
		{
			"buffer":0,
			"byteLength":288,
			"byteOffset":116132,
			"target":34962
		},
		{
			"buffer":0,
			"byteLength":144,
			"byteOffset":116420,
			"target":34963
		},
		{
			"buffer":0,
			"byteLength":984,
			"byteOffset":116564,
			"target":34962
		},
		{
			"buffer":0,
			"byteLength":984,
			"byteOffset":117548,
			"target":34962
		},
		{
			"buffer":0,
			"byteLength":656,
			"byteOffset":118532,
			"target":34962
		},
		{
			"buffer":0,
			"byteLength":336,
			"byteOffset":119188,
			"target":34963
		},
		{
			"buffer":0,
			"byteLength":96,
			"byteOffset":119524,
			"target":34962
		},
		{
			"buffer":0,
			"byteLength":96,
			"byteOffset":119620,
			"target":34962
		},
		{
			"buffer":0,
			"byteLength":64,
			"byteOffset":119716,
			"target":34962
		},
		{
			"buffer":0,
			"byteLength":48,
			"byteOffset":119780,
			"target":34963
		},
		{
			"buffer":0,
			"byteLength":3552,
			"byteOffset":119828,
			"target":34962
		},
		{
			"buffer":0,
			"byteLength":3552,
			"byteOffset":123380,
			"target":34962
		},
		{
			"buffer":0,
			"byteLength":2368,
			"byteOffset":126932,
			"target":34962
		},
		{
			"buffer":0,
			"byteLength":1344,
			"byteOffset":129300,
			"target":34963
		},
		{
			"buffer":0,
			"byteLength":192,
			"byteOffset":130644,
			"target":34962
		},
		{
			"buffer":0,
			"byteLength":192,
			"byteOffset":130836,
			"target":34962
		},
		{
			"buffer":0,
			"byteLength":128,
			"byteOffset":131028,
			"target":34962
		},
		{
			"buffer":0,
			"byteLength":60,
			"byteOffset":131156,
			"target":34963
		},
		{
			"buffer":0,
			"byteLength":636,
			"byteOffset":131216,
			"target":34962
		},
		{
			"buffer":0,
			"byteLength":636,
			"byteOffset":131852,
			"target":34962
		},
		{
			"buffer":0,
			"byteLength":424,
			"byteOffset":132488,
			"target":34962
		},
		{
			"buffer":0,
			"byteLength":252,
			"byteOffset":132912,
			"target":34963
		},
		{
			"buffer":0,
			"byteLength":72,
			"byteOffset":133164,
			"target":34962
		},
		{
			"buffer":0,
			"byteLength":72,
			"byteOffset":133236,
			"target":34962
		},
		{
			"buffer":0,
			"byteLength":48,
			"byteOffset":133308,
			"target":34962
		},
		{
			"buffer":0,
			"byteLength":36,
			"byteOffset":133356,
			"target":34963
		}
	],
	"samplers":[
		{
			"magFilter":9729,
			"minFilter":9987
		}
	],
	"buffers":[
		{
			"byteLength":133392,
			"uri":"scene.bin"
		}
	]
}
