{
	"asset":{
		"generator":"Khronos glTF Blender I/O v4.2.57",
		"version":"2.0"
	},
	"scene":0,
	"scenes":[
		{
			"name":"Scene",
			"nodes":[
				0
			]
		}
	],
	"nodes":[
		{
			"mesh":0,
			"name":"Door_low.002_Door_0"
		}
	],
	"materials":[
		{
			"doubleSided":true,
			"name":"Door",
			"normalTexture":{
				"index":0
			},
			"occlusionTexture":{
				"index":1
			},
			"pbrMetallicRoughness":{
				"baseColorTexture":{
					"index":2
				},
				"metallicRoughnessTexture":{
					"index":1
				}
			}
		}
	],
	"meshes":[
		{
			"name":"Door_low.002_Door_0",
			"primitives":[
				{
					"attributes":{
						"POSITION":0,
						"NORMAL":1,
						"TEXCOORD_0":2
					},
					"indices":3,
					"material":0
				}
			]
		}
	],
	"textures":[
		{
			"sampler":0,
			"source":0
		},
		{
			"sampler":0,
			"source":1
		},
		{
			"sampler":0,
			"source":2
		}
	],
	"images":[
		{
			"mimeType":"image/jpeg",
			"name":"Door_normal",
			"uri":"Door_normal.jpg"
		},
		{
			"mimeType":"image/jpeg",
			"name":"Door_metallicRoughness",
			"uri":"Door_metallicRoughness.jpg"
		},
		{
			"mimeType":"image/jpeg",
			"name":"Door_baseColor",
			"uri":"Door_baseColor.jpg"
		}
	],
	"accessors":[
		{
			"bufferView":0,
			"componentType":5126,
			"count":732,
			"max":[
				4.850861072540283,
				19.976354598999023,
				0.9269802570343018
			],
			"min":[
				-4.850863456726074,
				-0.05403749272227287,
				-0.9238019585609436
			],
			"type":"VEC3"
		},
		{
			"bufferView":1,
			"componentType":5126,
			"count":732,
			"type":"VEC3"
		},
		{
			"bufferView":2,
			"componentType":5126,
			"count":732,
			"type":"VEC2"
		},
		{
			"bufferView":3,
			"componentType":5123,
			"count":2016,
			"type":"SCALAR"
		}
	],
	"bufferViews":[
		{
			"buffer":0,
			"byteLength":8784,
			"byteOffset":0,
			"target":34962
		},
		{
			"buffer":0,
			"byteLength":8784,
			"byteOffset":8784,
			"target":34962
		},
		{
			"buffer":0,
			"byteLength":5856,
			"byteOffset":17568,
			"target":34962
		},
		{
			"buffer":0,
			"byteLength":4032,
			"byteOffset":23424,
			"target":34963
		}
	],
	"samplers":[
		{
			"magFilter":9729,
			"minFilter":9987
		}
	],
	"buffers":[
		{
			"byteLength":27456,
			"uri":"scene.bin"
		}
	]
}
