{
	"asset":{
		"generator":"Khronos glTF Blender I/O v4.2.57",
		"version":"2.0"
	},
	"extensionsUsed":[
		"KHR_materials_unlit"
	],
	"scene":0,
	"scenes":[
		{
			"name":"Scene",
			"nodes":[
				0
			]
		}
	],
	"nodes":[
		{
			"mesh":0,
			"name":"Object_4"
		}
	],
	"materials":[
		{
			"extensions":{
				"KHR_materials_unlit":{}
			},
			"name":"material_0",
			"pbrMetallicRoughness":{
				"baseColorTexture":{
					"index":0
				},
				"metallicFactor":0,
				"roughnessFactor":0.9
			}
		}
	],
	"meshes":[
		{
			"name":"Object_0",
			"primitives":[
				{
					"attributes":{
						"POSITION":0,
						"NORMAL":1,
						"TEXCOORD_0":2,
						"TEXCOORD_1":3,
						"TEXCOORD_2":4
					},
					"indices":5,
					"material":0
				}
			]
		}
	],
	"textures":[
		{
			"sampler":0,
			"source":0
		}
	],
	"images":[
		{
			"mimeType":"image/jpeg",
			"name":"material_0_baseColor",
			"uri":"material_0_baseColor.jpg"
		}
	],
	"accessors":[
		{
			"bufferView":0,
			"componentType":5126,
			"count":15837,
			"max":[
				0.08494186401367188,
				0.24561285972595215,
				0.10560769587755203
			],
			"min":[
				-0.08494186401367188,
				9.632855653762817e-05,
				-0.10560769587755203
			],
			"type":"VEC3"
		},
		{
			"bufferView":1,
			"componentType":5126,
			"count":15837,
			"type":"VEC3"
		},
		{
			"bufferView":2,
			"componentType":5126,
			"count":15837,
			"type":"VEC2"
		},
		{
			"bufferView":3,
			"componentType":5126,
			"count":15837,
			"type":"VEC2"
		},
		{
			"bufferView":4,
			"componentType":5126,
			"count":15837,
			"type":"VEC2"
		},
		{
			"bufferView":5,
			"componentType":5123,
			"count":74997,
			"type":"SCALAR"
		}
	],
	"bufferViews":[
		{
			"buffer":0,
			"byteLength":190044,
			"byteOffset":0,
			"target":34962
		},
		{
			"buffer":0,
			"byteLength":190044,
			"byteOffset":190044,
			"target":34962
		},
		{
			"buffer":0,
			"byteLength":126696,
			"byteOffset":380088,
			"target":34962
		},
		{
			"buffer":0,
			"byteLength":126696,
			"byteOffset":506784,
			"target":34962
		},
		{
			"buffer":0,
			"byteLength":126696,
			"byteOffset":633480,
			"target":34962
		},
		{
			"buffer":0,
			"byteLength":149994,
			"byteOffset":760176,
			"target":34963
		}
	],
	"samplers":[
		{
			"magFilter":9729,
			"minFilter":9987
		}
	],
	"buffers":[
		{
			"byteLength":910172,
			"uri":"scene.bin"
		}
	]
}
